<?xml version="1.0" encoding="utf-8"?>
<!-- Generator: Adobe Illustrator 23.1.0, SVG Export Plug-In . SVG Version: 6.00 Build 0)  -->
<svg version="1.1" id="Layer_1" xmlns="http://www.w3.org/2000/svg" xmlns:xlink="http://www.w3.org/1999/xlink" x="0px" y="0px"
	 viewBox="0 0 1818 922" style="enable-background:new 0 0 1818 922;" xml:space="preserve">
<style type="text/css">
	.st0{fill:#662D91;}
	.st1{fill:url(#SVGID_1_);}
	.st2{fill:url(#SVGID_2_);}
	.st3{fill:url(#SVGID_3_);}
	.st4{fill:url(#SVGID_4_);}
	.st5{fill:url(#SVGID_5_);}
	.st6{fill:url(#SVGID_6_);}
	.st7{fill:url(#SVGID_7_);}
	.st8{fill:url(#SVGID_8_);}
	.st9{fill:url(#SVGID_9_);}
	.st10{fill:url(#SVGID_10_);}
	.st11{fill:url(#SVGID_11_);}
	.st12{fill:#7118B7;stroke:#000000;stroke-miterlimit:10;}
	.st13{fill:url(#SVGID_12_);}
	.st14{fill:url(#SVGID_13_);}
	.st15{fill:url(#SVGID_14_);}
	.st16{fill:url(#SVGID_15_);}
	.st17{stroke:#7118B7;stroke-width:10;stroke-miterlimit:10;}
	.st18{fill:#7118B7;stroke:#000000;stroke-width:1.4334;stroke-miterlimit:10;}
	.st19{fill:url(#SVGID_16_);}
	.st20{fill:url(#SVGID_17_);}
	.st21{fill:url(#SVGID_18_);}
	.st22{fill:url(#SVGID_19_);}
	.st23{fill:#E6E6E6;stroke:#7118B7;stroke-miterlimit:10;}
	.st24{fill:url(#SVGID_20_);}
	.st25{fill:url(#SVGID_21_);}
	.st26{fill:url(#SVGID_22_);}
	.st27{fill:url(#SVGID_23_);}
	.st28{fill:#7118B7;stroke:#E6E6E6;stroke-width:10;stroke-miterlimit:10;}
	.st29{fill:url(#SVGID_24_);}
	.st30{fill:url(#SVGID_25_);}
	.st31{fill:url(#SVGID_26_);}
	.st32{fill:#F2F2F2;}
	.st33{fill:url(#SVGID_27_);}
	.st34{fill:url(#SVGID_28_);}
	.st35{fill:url(#SVGID_29_);}
	.st36{fill:url(#SVGID_30_);}
	.st37{fill:none;}
	.st38{fill:url(#SVGID_31_);}
	.st39{fill:url(#SVGID_32_);}
	.st40{fill:url(#SVGID_33_);}
	.st41{fill:url(#SVGID_34_);}
	.st42{fill:url(#SVGID_35_);}
	.st43{fill:url(#SVGID_36_);}
	.st44{fill:url(#SVGID_37_);}
	.st45{fill:url(#SVGID_38_);}
	.st46{fill:url(#SVGID_39_);}
	.st47{fill:url(#SVGID_40_);}
</style>
<text transform="matrix(1 0 0 1 4135.5098 -1943.5052)" class="st32" style="font-family:'Georgia-Bold'; font-size:296.5141px;">S</text>
<g>
	<path class="st0" d="M-1644.9-1741.2c-15.8,0-30.6-2-44.3-5.9c-8.9-2.6-18.3-4.9-25.3-6.9c-7.3-2.1-18.6-2.5-24.7,0.3
		c-0.2,0.1-0.4,0.2-0.6,0.2l-8,2.7c-0.4,0.2-0.5,0.2-0.7,0.3c0,0-0.6,0.2-0.6-0.1c-0.8-5.7-9.2-68.4-6.3-89.4c0-0.1,0.2-0.3,0.4-0.5
		c1.2-1.1,2.8-1.6,4.4-1.4c7.4,0.8,14,5.4,17.3,12.3c2.4,5.1,5.1,10.4,8.1,15.8c5.5,9.9,11.8,18.7,19,26.5
		c7.4,8.2,15.7,14.8,24.9,19.9c9.2,5.1,19.9,7.7,32.2,7.7c16.6,0,29.2-4,38.1-12.2c8.8-8.1,13.2-18.3,13.2-30.6
		c0-10.1-3.7-18.6-11.2-25.5c-7.5-6.9-19.1-12.8-34.8-17.8c-10.2-3.3-19.6-6.4-28.2-9.2c-8.6-2.8-16.6-5.7-24.2-8.6
		c-17.4-6.9-30.3-16.9-38.8-29.8c-8.5-12.9-12.7-27.4-12.7-43.3c0-10.1,2.2-19.8,6.6-29.2c4.4-9.3,10.8-17.7,19.2-25.1
		c8-6.9,18.3-12.6,30.9-17c12.5-4.4,26.2-6.6,40.9-6.6c14.4,0,27.8,2,40.4,6c7.4,2.4,13.9,4.8,19.5,7.1c6.4,2.7,31.7,19.1,31.9,27.9
		l2,39c0.1,8.6-19-3.8-23.9-13.7s-10.1-18.2-15.6-24.8c-6-7.1-12.8-12.7-20.6-16.9c-7.8-4.2-16.9-6.3-27.4-6.3
		c-13.1,0-23.9,3.7-32.2,11.2c-8.3,7.4-12.5,16.6-12.5,27.6c0,10.4,3.6,18.8,10.9,25.4c7.2,6.6,18.5,12.4,33.9,17.4
		c9,3,18.2,6.1,27.6,9.1c9.4,3,17.7,6,25,8.8c17.7,6.8,31.1,16.2,40.3,28.3c9.2,12,13.8,26.9,13.8,44.7c0,11.2-2.6,22.1-7.9,32.6
		c-5.2,10.5-12.3,19.2-21.2,26.1c-9.7,7.7-21,13.6-33.8,17.7C-1612.9-1743.2-1627.8-1741.2-1644.9-1741.2z"/>
</g>
<g>
	<path class="st0" d="M-1742.1-2201.2c-15.8,0-30.6-2-44.3-5.9c-8.9-2.6-18.3-4.9-25.3-6.9c-7.3-2.1-18.6-2.5-24.7,0.3
		c-0.2,0.1-0.4,0.2-0.6,0.2l-8,2.7c-0.4,0.2-0.5,0.2-0.7,0.3c0,0-0.6,0.2-0.6-0.1c-0.8-5.7-9.2-68.4-6.3-89.4c0-0.1,0.2-0.3,0.4-0.5
		c1.2-1.1,2.8-1.6,4.4-1.4c7.4,0.8,14,5.4,17.3,12.3c2.4,5.1,5.1,10.4,8.1,15.8c5.5,9.9,11.8,18.7,19,26.5
		c7.4,8.2,15.7,14.8,24.9,19.9c9.2,5.1,19.9,7.7,32.2,7.7c16.6,0,29.2-4,38.1-12.2c8.8-8.1,13.2-18.3,13.2-30.6
		c0-10.1-3.7-18.6-11.2-25.5c-7.5-6.9-19.1-12.8-34.8-17.8c-10.2-3.3-19.6-6.4-28.2-9.2c-8.6-2.8-16.6-5.7-24.2-8.6
		c-17.4-6.9-30.3-16.9-38.8-29.8c-8.5-12.9-12.7-27.4-12.7-43.3c0-10.1,2.2-19.8,6.6-29.2c4.4-9.3,10.8-17.7,19.2-25.1
		c8-6.9,18.3-12.6,30.9-17c12.5-4.4,26.2-6.6,40.9-6.6c14.4,0,27.8,2,40.4,6c7.4,2.4,13.9,4.8,19.5,7.1c6.4,2.7,31.7,19.1,31.9,27.9
		l2,39c0.1,8.6-19-3.8-23.9-13.7s-10.1-18.2-15.6-24.8c-6-7.1-12.8-12.7-20.6-16.9c-7.8-4.2-16.9-6.3-27.4-6.3
		c-13.1,0-23.9,3.7-32.2,11.2c-8.3,7.4-12.5,16.6-12.5,27.6c0,10.4,3.6,18.8,10.9,25.4c7.2,6.6,18.5,12.4,33.9,17.4
		c9,3,18.2,6.1,27.6,9.1c9.4,3,17.7,6,25,8.8c17.7,6.8,31.1,16.2,40.3,28.3c9.2,12,13.8,26.9,13.8,44.7c0,11.2-2.6,22.1-7.9,32.6
		c-5.2,10.5-12.3,19.2-21.2,26.1c-9.7,7.7-21,13.6-33.8,17.7C-1710.1-2203.3-1725-2201.2-1742.1-2201.2z"/>
</g>
<g>
	<g>
		<g>
			
				<radialGradient id="SVGID_1_" cx="772.5842" cy="-2502.1929" r="183.3952" fx="771.4385" fy="-2511.6511" gradientTransform="matrix(-0.9185 0.3954 -0.3954 -0.9185 -12.22 -5283.6113)" gradientUnits="userSpaceOnUse">
				<stop  offset="0" style="stop-color:#ED4617"/>
				<stop  offset="1" style="stop-color:#F16F22"/>
			</radialGradient>
			<path class="st1" d="M95.5-2619.8c-26.7-51.1-50.4-140.6-13.2-173.6c15.6-13.9,28.3-5.6,160,3.3c63.2,4.3,78,3.6,104.8,14.1
				c14.2,5.6,57.6,23.3,90.4,68.5c11.3,15.6,51.7,71.3,35.7,127.1c-19.8,68.9-114.8,98.4-180.8,96.2
				C166.6-2488.3,101.3-2608.6,95.5-2619.8z"/>
		</g>
		<g>
			
				<radialGradient id="SVGID_2_" cx="403.3691" cy="-2679.6938" r="191.5827" fx="402.1723" fy="-2689.5742" gradientTransform="matrix(-0.7715 -0.6362 0.6362 -0.7715 2337.1819 -4522.8569)" gradientUnits="userSpaceOnUse">
				<stop  offset="0" style="stop-color:#F1DD26"/>
				<stop  offset="1" style="stop-color:#F4BD1E"/>
			</radialGradient>
			<path class="st2" d="M169.9-2873.5c7.9-12.5,35.2-55.5,78.9-61c43.9-5.5,78.5,30.6,147.6,102.8c57.5,60.1,87.2,92,97.3,145.3
				c3.4,17.8,11,57.9-8.7,99.9c-25.9,55.2-88.9,92.2-149.6,86.7c-60.5-5.5-96.7-51.2-121.7-82.9
				C153.8-2658.2,114.4-2785.8,169.9-2873.5z"/>
		</g>
		<g>
			
				<radialGradient id="SVGID_3_" cx="330.9942" cy="-2700.678" r="193.1375" fx="330.394" fy="-2712.5491" gradientTransform="matrix(0.9973 7.333645e-02 -7.333645e-02 0.9973 -194.0479 -39.4459)" gradientUnits="userSpaceOnUse">
				<stop  offset="0" style="stop-color:#30A9DC"/>
				<stop  offset="1" style="stop-color:#0C73B8"/>
			</radialGradient>
			<path class="st3" d="M481.9-2890.9c72.4,40,66.8,326.1-69,373.4c-73.8,25.7-164.2-26.7-211.7-82.5c-8.3-9.7-78.9-92.6-51.1-157
				c12.7-29.4,37-34.4,180.6-88.5C455.2-2892.2,466.3-2899.5,481.9-2890.9z"/>
		</g>
	</g>
	<g>
		<linearGradient id="SVGID_4_" gradientUnits="userSpaceOnUse" x1="205.3197" y1="-2709.51" x2="385.791" y2="-2709.51">
			<stop  offset="0" style="stop-color:#7118B7;stop-opacity:0.9"/>
			<stop  offset="1" style="stop-color:#7118B7;stop-opacity:0.6"/>
		</linearGradient>
		<path class="st4" d="M297-2596.7c-13.1,0-25.2-1.6-36.5-4.9c-7.3-2.1-15.1-4-20.9-5.7c-6-1.7-15.4-2.1-20.4,0.3
			c-0.2,0.1-0.3,0.1-0.5,0.2l-6.6,2.2c-0.4,0.1-0.4,0.2-0.6,0.2c0,0-0.5,0.1-0.5-0.1c-0.6-4.7-7.6-56.5-5.2-73.8
			c0-0.1,0.1-0.2,0.3-0.4c1-0.9,2.3-1.3,3.7-1.2c6.1,0.7,11.6,4.5,14.2,10.2c2,4.2,4.2,8.5,6.7,13c4.5,8.2,9.7,15.5,15.7,21.9
			c6.1,6.7,13,12.2,20.6,16.5c7.6,4.2,16.4,6.3,26.6,6.3c13.7,0,24.1-3.3,31.4-10c7.3-6.7,10.9-15.1,10.9-25.3
			c0-8.3-3.1-15.4-9.3-21c-6.2-5.7-15.7-10.6-28.7-14.7c-8.4-2.7-16.2-5.2-23.3-7.6c-7.1-2.3-13.7-4.7-20-7.1
			c-14.4-5.7-25-13.9-32-24.6c-7-10.7-10.5-22.6-10.5-35.8c0-8.3,1.8-16.4,5.4-24.1c3.6-7.7,8.9-14.6,15.8-20.7
			c6.6-5.7,15.1-10.4,25.5-14c10.3-3.6,21.6-5.4,33.8-5.4c11.9,0,23,1.7,33.3,5c6.1,2,11.5,3.9,16.1,5.9c5.2,2.3,26.2,15.7,26.3,23
			l1.7,32.2c0.1,7.1-15.6-3.1-19.7-11.3c-4.1-8.2-8.4-15-12.9-20.5c-4.9-5.8-10.6-10.5-17-14c-6.4-3.5-14-5.2-22.6-5.2
			c-10.8,0-19.7,3.1-26.6,9.2c-6.9,6.1-10.3,13.7-10.3,22.8c0,8.6,3,15.5,9,21c6,5.4,15.3,10.2,28,14.3c7.4,2.5,15,5,22.8,7.5
			c7.7,2.5,14.6,4.9,20.6,7.2c14.6,5.6,25.6,13.4,33.2,23.3c7.6,9.9,11.4,22.2,11.4,36.9c0,9.3-2.2,18.2-6.5,26.9
			c-4.3,8.7-10.1,15.8-17.5,21.6c-8,6.3-17.3,11.2-27.9,14.6C323.4-2598.4,311.1-2596.7,297-2596.7z"/>
	</g>
</g>
<g>
	<path class="st0" d="M-1253.8-1741.2c-15.8,0-30.6-2-44.3-5.9c-8.9-2.6-18.3-4.9-25.3-6.9c-7.4-2.1-19-2.5-25,0.5l-8.3,2.8
		c-0.4,0.1-0.9,0.3-1.3,0.6l0,0c-6.4,2.1-14.4,3.1-14.4,3.1c-7.1,0-13-8-13-14.8l-0.8-49.7c-0.1-4.6,3.6-7.4,7.3-10.2
		c5.5-4.3,20.5-10.3,28.5-9.3c5.6,0.7,13.3,11.8,16.3,17.2c5.5,9.9,11.8,18.7,19,26.5c7.4,8.2,15.7,14.8,24.9,19.9
		c9.2,5.1,19.9,7.7,32.2,7.7c16.6,0,29.2-4,38.1-12.2c8.8-8.1,13.2-18.3,13.2-30.6c0-10.1-3.7-18.6-11.2-25.5
		c-7.5-6.9-19.1-12.8-34.8-17.8c-10.2-3.3-19.6-6.4-28.2-9.2c-8.6-2.8-16.6-5.7-24.2-8.6c-17.4-6.9-30.3-16.9-38.8-29.8
		c-8.5-12.9-12.7-27.4-12.7-43.3c0-10.1,2.2-19.8,6.6-29.2c4.4-9.3,10.8-17.7,19.2-25.1c8-6.9,18.3-12.6,30.9-17
		c12.5-4.4,26.2-6.6,40.9-6.6c14.4,0,27.8,2,40.4,6c7.4,2.4,13.9,4.8,19.5,7.1c6.4,2.7,31.7,19.1,31.9,27.9l2,39
		c0.1,8.6-19-3.8-23.9-13.7s-10.1-18.2-15.6-24.8c-6-7.1-12.8-12.7-20.6-16.9c-7.8-4.2-16.9-6.3-27.4-6.3
		c-13.1,0-23.9,3.7-32.2,11.2c-8.3,7.4-12.5,16.6-12.5,27.6c0,10.4,3.6,18.8,10.9,25.4c7.2,6.6,18.5,12.4,33.9,17.4
		c9,3,18.2,6.1,27.6,9.1c9.4,3,17.7,6,25,8.8c17.7,6.8,31.1,16.2,40.3,28.3c9.2,12,13.8,26.9,13.8,44.7c0,11.2-2.6,22.1-7.9,32.6
		c-5.2,10.5-12.3,19.2-21.2,26.1c-9.7,7.7-21,13.6-33.8,17.7C-1221.9-1743.2-1236.8-1741.2-1253.8-1741.2z"/>
</g>
<g>
	
		<radialGradient id="SVGID_5_" cx="-2722.3408" cy="-4133.0396" r="231.3187" fx="-2723.7859" fy="-4144.9692" gradientTransform="matrix(-0.9185 0.3954 -0.3954 -0.9185 -12.22 -5283.6113)" gradientUnits="userSpaceOnUse">
		<stop  offset="0" style="stop-color:#ED4617"/>
		<stop  offset="1" style="stop-color:#F16F22"/>
	</radialGradient>
	<path class="st5" d="M3905.5-2487.9c-33.6-64.4-63.5-177.3-16.6-218.9c19.7-17.5,35.7-7.1,201.8,4.2c79.8,5.4,98.4,4.5,132.2,17.8
		c17.9,7,72.7,29.3,114,86.4c14.3,19.7,65.2,90,45,160.3c-25,87-144.7,124.1-228.1,121.4C3995.2-2322.1,3912.8-2473.8,3905.5-2487.9
		z"/>
</g>
<g>
	
		<radialGradient id="SVGID_6_" cx="-2650.2354" cy="-301.4143" r="241.6458" fx="-2651.7449" fy="-313.8766" gradientTransform="matrix(-0.7715 -0.6362 0.6362 -0.7715 2337.1819 -4522.8569)" gradientUnits="userSpaceOnUse">
		<stop  offset="0" style="stop-color:#F1DD26"/>
		<stop  offset="1" style="stop-color:#F4BD1E"/>
	</radialGradient>
	<path class="st6" d="M3999.4-2807.9c10-15.8,44.3-70,99.5-76.9c55.4-6.9,99,38.6,186.2,129.7c72.6,75.8,110,116,122.8,183.3
		c4.3,22.5,13.9,73-11,126c-32.7,69.6-112.1,116.4-188.7,109.4c-76.3-6.9-122-64.6-153.5-104.6
		C3979.1-2536.4,3929.3-2697.3,3999.4-2807.9z"/>
</g>
<g>
	
		<radialGradient id="SVGID_7_" cx="4200.9077" cy="-2876.312" r="243.6069" fx="4200.1509" fy="-2891.2854" gradientTransform="matrix(0.9973 7.333645e-02 -7.333645e-02 0.9973 -194.0479 -39.4459)" gradientUnits="userSpaceOnUse">
		<stop  offset="0" style="stop-color:#30A9DC"/>
		<stop  offset="1" style="stop-color:#0C73B8"/>
	</radialGradient>
	<path class="st7" d="M4392.9-2829.8c91.4,50.5,84.3,411.3-87,471c-93.1,32.4-207.1-33.7-267-104c-10.4-12.2-99.5-116.8-64.4-198
		c16-37,46.7-43.4,227.8-111.6C4359.2-2831.5,4373.2-2840.7,4392.9-2829.8z"/>
</g>
<text transform="matrix(1 0 0 1 4093.1772 -2438.6431)" class="st32" style="font-family:'Georgia-Bold'; font-size:373.9971px;">S</text>
<g>
	<g>
		<g>
			
				<radialGradient id="SVGID_8_" cx="1310.5839" cy="-3841.9133" r="231.3187" fx="1309.1388" fy="-3853.843" gradientTransform="matrix(-0.9185 0.3954 -0.3954 -0.9185 -12.22 -5283.6113)" gradientUnits="userSpaceOnUse">
				<stop  offset="0" style="stop-color:#ED4617"/>
				<stop  offset="1" style="stop-color:#F16F22"/>
			</radialGradient>
			<path class="st8" d="M86.1-1160.8c-33.6-64.4-63.5-177.3-16.6-218.9c19.7-17.5,35.7-7.1,201.8,4.2c79.8,5.4,98.4,4.5,132.2,17.8
				c17.9,7,72.7,29.3,114,86.4c14.3,19.7,65.2,90,45,160.3c-25,87-144.7,124.1-228.1,121.4C175.8-994.9,93.4-1146.7,86.1-1160.8z"/>
		</g>
		<g>
			
				<radialGradient id="SVGID_9_" cx="-547.7209" cy="-3755.2051" r="241.6458" fx="-549.2305" fy="-3767.6675" gradientTransform="matrix(-0.7715 -0.6362 0.6362 -0.7715 2337.1819 -4522.8569)" gradientUnits="userSpaceOnUse">
				<stop  offset="0" style="stop-color:#F1DD26"/>
				<stop  offset="1" style="stop-color:#F4BD1E"/>
			</radialGradient>
			<path class="st9" d="M180-1480.8c10-15.8,44.3-70,99.5-76.9c55.4-6.9,99,38.6,186.2,129.7c72.6,75.8,110,116,122.8,183.3
				c4.3,22.5,13.9,73-11,126c-32.7,69.6-112.1,116.4-188.7,109.4c-76.3-6.9-122-64.6-153.5-104.6
				C159.7-1209.3,109.9-1370.2,180-1480.8z"/>
		</g>
		<g>
			
				<radialGradient id="SVGID_10_" cx="489.0944" cy="-1272.6663" r="243.6069" fx="488.3373" fy="-1287.6395" gradientTransform="matrix(0.9973 7.333645e-02 -7.333645e-02 0.9973 -194.0479 -39.4459)" gradientUnits="userSpaceOnUse">
				<stop  offset="0" style="stop-color:#30A9DC"/>
				<stop  offset="1" style="stop-color:#0C73B8"/>
			</radialGradient>
			<path class="st10" d="M573.4-1502.7c91.4,50.5,84.3,411.3-87,471c-93.1,32.4-207.1-33.7-267-104c-10.4-12.2-99.5-116.8-64.4-198
				c16-37,46.7-43.4,227.8-111.6C539.7-1504.4,553.8-1513.6,573.4-1502.7z"/>
		</g>
	</g>
	<g>
		<linearGradient id="SVGID_11_" gradientUnits="userSpaceOnUse" x1="248.1932" y1="-1232.2905" x2="461.7897" y2="-1232.2905">
			<stop  offset="0" style="stop-color:#7118B7;stop-opacity:0.9"/>
			<stop  offset="1" style="stop-color:#7118B7;stop-opacity:0.6"/>
		</linearGradient>
		<path class="st11" d="M356.7-1098.8c-15.5,0-29.9-1.9-43.2-5.8c-8.6-2.5-17.8-4.8-24.7-6.7c-7.2-2-18.2-2.4-24.1,0.3
			c-0.2,0.1-0.4,0.2-0.6,0.2l-7.8,2.6c-0.4,0.2-0.5,0.2-0.7,0.3c0,0-0.6,0.2-0.6-0.1c-0.8-5.6-9-66.8-6.2-87.3
			c0-0.1,0.2-0.3,0.4-0.5c1.2-1,2.8-1.5,4.3-1.4c7.3,0.8,13.7,5.3,16.8,12c2.4,5,5,10.1,7.9,15.4c5.4,9.7,11.5,18.3,18.5,25.9
			c7.3,8,15.4,14.5,24.3,19.5c9,5,19.5,7.5,31.5,7.5c16.2,0,28.6-4,37.2-11.9c8.6-7.9,12.9-17.9,12.9-29.9c0-9.9-3.7-18.2-11-24.9
			c-7.3-6.7-18.6-12.5-34-17.4c-10-3.2-19.2-6.2-27.6-9c-8.4-2.7-16.3-5.6-23.6-8.4c-17-6.8-29.6-16.5-37.9-29.1
			c-8.3-12.6-12.4-26.7-12.4-42.3c0-9.9,2.1-19.4,6.4-28.5c4.3-9.1,10.5-17.3,18.7-24.6c7.8-6.8,17.9-12.3,30.1-16.6
			c12.2-4.3,25.6-6.4,39.9-6.4c14,0,27.2,2,39.4,5.9c7.3,2.3,13.6,4.7,19,7c6.2,2.7,31,18.6,31.1,27.2l2,38.1
			c0.1,8.4-18.5-3.7-23.3-13.4c-4.8-9.7-9.9-17.8-15.2-24.2c-5.8-6.9-12.5-12.4-20.2-16.5c-7.6-4.1-16.5-6.2-26.8-6.2
			c-12.8,0-23.3,3.6-31.5,10.9c-8.1,7.3-12.2,16.3-12.2,27c0,10.1,3.5,18.4,10.6,24.8c7.1,6.4,18.1,12.1,33.1,17
			c8.8,3,17.8,6,26.9,8.9c9.2,3,17.3,5.8,24.4,8.6c17.2,6.7,30.3,15.9,39.3,27.6c9,11.7,13.5,26.3,13.5,43.7c0,11-2.6,21.6-7.7,31.8
			c-5.1,10.2-12,18.8-20.7,25.5c-9.5,7.5-20.5,13.3-33,17.3C388-1100.8,373.4-1098.8,356.7-1098.8z"/>
	</g>
</g>
<g>
	<g>
		<path class="st12" d="M204.2-2382c0.7,0.5,0.8,1.5,0.4,2.2c-1.3,1.9-2.8,3.8-4.5,5.5c-2.1,2.1-4.5,4-7.1,5.5
			c-2.8,1.6-5.7,2.8-8.6,3.7c-2.9,0.8-6.2,1.2-10,1.2c-6.3,0-11.7-0.9-16.2-2.7c-4.6-1.8-8.3-4.2-11.3-7.2c-3-3-5.2-6.5-6.6-10.6
			c-1.5-4.1-2.2-8.5-2.2-13.3c0-4.3,0.8-8.5,2.4-12.4c1.6-4,3.8-7.5,6.8-10.6c2.9-3,6.5-5.4,10.9-7.3c4.4-1.9,9.3-2.8,14.7-2.8
			c5.9,0,10.8,0.7,14.6,2.2c3.8,1.4,7,3.4,9.5,6c2.4,2.4,4.2,5.3,5.3,8.5c1.1,3.3,1.7,6.7,1.7,10.3v2.6c0,0.9-0.7,1.6-1.6,1.6h-39.8
			c-0.9,0-1.6,0.7-1.6,1.6c0.2,7.9,1.9,14,5,18.2c3.3,4.5,8.7,6.8,15.9,6.8c4,0,7.6-1.1,10.7-3.3c2.8-1.9,5.2-4.3,7.3-7
			c0.5-0.7,1.5-0.8,2.2-0.3L204.2-2382z M179.6-2405.2c0.9,0,1.6-0.7,1.5-1.6c0-2-0.2-4.1-0.4-6.2c-0.3-2.7-0.7-4.8-1.3-6.5
			c-0.7-2-1.7-3.5-3-4.5c-1.2-1-2.8-1.5-4.7-1.5c-3.3,0-5.9,1.7-7.8,5c-1.8,3-2.8,7.7-3.1,14c0,0.9,0.7,1.7,1.6,1.7L179.6-2405.2z"
			/>
		<path class="st12" d="M331.4-2365.9h-32.9c-1.3,0-2.4-1.1-2.4-2.4v-0.1c0-1.2,0.9-2.3,2.2-2.4c0.2,0,0.5,0,0.7-0.1
			c1-0.1,1.8-0.3,2.5-0.6c0.9-0.4,1.5-1.1,1.8-2.1c0.3-1,0.4-2.3,0.4-3.8v-29.6c0-4.4-0.8-7.6-2.3-9.8c-1.5-2.2-3.8-3.3-6.7-3.3
			c-1.8,0-3.4,0.3-4.9,0.9c-1.4,0.6-2.7,1.3-3.9,2.1c-1.2,0.9-2.2,1.8-2.9,2.7c-0.5,0.6-0.9,1.2-1.2,1.6c-0.3,0.4-0.5,0.9-0.5,1.4
			l0,33.3c0,1.5,0.2,2.8,0.5,3.7c0.4,1,1,1.7,2,2.3c0.7,0.4,1.4,0.7,2.3,1c0.3,0.1,0.6,0.2,0.9,0.3c1.1,0.3,1.9,1.2,1.9,2.3v0.3
			c0,1.3-1.1,2.4-2.4,2.4h-31.3c-1.3,0-2.4-1.1-2.4-2.4v-0.1c0-1.2,0.9-2.3,2.1-2.4c0.2,0,0.5-0.1,0.8-0.1c1.1-0.1,2-0.3,2.5-0.6
			c0.9-0.5,1.5-1.1,1.7-2c0.3-0.9,0.4-2.2,0.4-3.9v-29.6c0-4.4-0.8-7.6-2.3-9.8c-1.5-2.2-3.8-3.3-6.7-3.3c-1.8,0-3.4,0.3-4.9,0.9
			c-1.4,0.6-2.7,1.3-3.9,2.1c-1.2,0.9-2.2,1.8-2.9,2.7c-0.5,0.6-0.9,1.2-1.2,1.6c-0.3,0.4-0.5,0.9-0.5,1.4l0,33.3
			c0,1.5,0.2,2.7,0.6,3.7c0.4,1,1.1,1.7,2,2.3c0.7,0.4,1.4,0.7,2.3,1c0.3,0.1,0.6,0.2,0.9,0.3c1.1,0.3,1.9,1.2,1.9,2.3v0.3
			c0,1.3-1.1,2.4-2.4,2.4H210c-1.3,0-2.4-1.1-2.4-2.4v0c0-1.2,0.9-2.3,2.1-2.4c0.4,0,0.7-0.1,1.1-0.1c1.1-0.1,2-0.3,2.7-0.6
			c1.4-0.5,2.3-1.2,2.8-2.2c0.5-1,0.8-2.2,0.8-3.8v-37c0-1.4-0.4-2.7-1.1-4c-0.7-1.3-1.6-2.3-2.6-3c-0.8-0.5-1.7-0.9-2.9-1.3
			c-0.6-0.2-1.2-0.3-1.8-0.4c-1.2-0.2-2-1.2-2-2.3v-0.3c0-1.3,1-2.3,2.3-2.4l27.3-1.5c0.4,0,0.9,0.1,1.2,0.5l0,0
			c0.3,0.3,0.5,0.7,0.5,1.1v8.3h0.3c1.2-1.1,2.6-2.3,4.2-3.8c1.6-1.5,3.2-2.6,4.6-3.5c1.6-1,3.6-1.9,6-2.5c2.5-0.7,5.1-1,8.1-1
			c4.8,0,8.9,1,12.1,3.1c3.2,2.1,5.5,4.9,6.9,8.3h0.6c1.2-1.1,2.7-2.5,4.5-4c1.8-1.5,3.4-2.8,4.9-3.7c1.7-1.1,3.8-1.9,6.3-2.7
			c2.6-0.7,5.3-1.1,8.2-1.1c6.4,0,11.3,1.9,14.8,5.7c3.4,3.8,5.2,9.1,5.2,16.1v30.9c0,1.6,0.2,2.8,0.7,3.8c0.5,1,1.3,1.7,2.5,2.2
			c0.7,0.3,1.5,0.6,2.5,0.9c0.5,0.1,1,0.3,1.5,0.4c1.1,0.2,1.9,1.2,1.9,2.4v0.1C333.8-2367,332.7-2365.9,331.4-2365.9z"/>
		<path class="st12" d="M461.1-2365.9h-32.9c-1.3,0-2.4-1.1-2.4-2.4v-0.1c0-1.2,0.9-2.3,2.2-2.4c0.2,0,0.5,0,0.7-0.1
			c1-0.1,1.8-0.3,2.5-0.6c0.9-0.4,1.5-1.1,1.8-2.1c0.3-1,0.4-2.3,0.4-3.8v-29.6c0-4.4-0.8-7.6-2.3-9.8c-1.5-2.2-3.8-3.3-6.7-3.3
			c-1.8,0-3.4,0.3-4.9,0.9c-1.4,0.6-2.7,1.3-3.9,2.1c-1.2,0.9-2.2,1.8-2.9,2.7c-0.5,0.6-0.9,1.2-1.2,1.6c-0.3,0.4-0.5,0.9-0.5,1.4
			l0,33.3c0,1.5,0.2,2.8,0.5,3.7c0.4,1,1,1.7,2,2.3c0.7,0.4,1.4,0.7,2.3,1c0.3,0.1,0.6,0.2,0.9,0.3c1.1,0.3,1.9,1.2,1.9,2.3v0.3
			c0,1.3-1.1,2.4-2.4,2.4h-31.3c-1.3,0-2.4-1.1-2.4-2.4v-0.1c0-1.2,0.9-2.3,2.1-2.4c0.2,0,0.5-0.1,0.8-0.1c1.1-0.1,2-0.3,2.5-0.6
			c0.9-0.5,1.5-1.1,1.7-2c0.3-0.9,0.4-2.2,0.4-3.9v-29.6c0-4.4-0.8-7.6-2.3-9.8c-1.5-2.2-3.8-3.3-6.7-3.3c-1.8,0-3.4,0.3-4.9,0.9
			c-1.4,0.6-2.7,1.3-3.9,2.1c-1.2,0.9-2.2,1.8-2.9,2.7c-0.5,0.6-0.9,1.2-1.2,1.6c-0.3,0.4-0.5,0.9-0.5,1.4l0,33.3
			c0,1.5,0.2,2.7,0.6,3.7c0.4,1,1.1,1.7,2,2.3c0.7,0.4,1.4,0.7,2.3,1c0.3,0.1,0.6,0.2,0.9,0.3c1.1,0.3,1.9,1.2,1.9,2.3v0.3
			c0,1.3-1.1,2.4-2.4,2.4h-33.2c-1.3,0-2.4-1.1-2.4-2.4v0c0-1.2,0.9-2.3,2.1-2.4c0.4,0,0.7-0.1,1.1-0.1c1.1-0.1,2-0.3,2.7-0.6
			c1.4-0.5,2.3-1.2,2.8-2.2c0.5-1,0.8-2.2,0.8-3.8v-37c0-1.4-0.4-2.7-1.1-4c-0.7-1.3-1.6-2.3-2.6-3c-0.8-0.5-1.7-0.9-2.9-1.3
			c-0.6-0.2-1.2-0.3-1.8-0.4c-1.2-0.2-2-1.2-2-2.3v-0.3c0-1.3,1-2.3,2.3-2.4l27.3-1.5c0.4,0,0.9,0.1,1.2,0.5l0,0
			c0.3,0.3,0.5,0.7,0.5,1.1v8.3h0.3c1.2-1.1,2.6-2.3,4.2-3.8c1.6-1.5,3.2-2.6,4.6-3.5c1.6-1,3.6-1.9,6-2.5c2.5-0.7,5.1-1,8.1-1
			c4.8,0,8.9,1,12.1,3.1c3.2,2.1,5.5,4.9,6.9,8.3h0.6c1.2-1.1,2.7-2.5,4.5-4c1.8-1.5,3.4-2.8,4.9-3.7c1.7-1.1,3.8-1.9,6.3-2.7
			c2.6-0.7,5.3-1.1,8.2-1.1c6.4,0,11.3,1.9,14.8,5.7c3.4,3.8,5.2,9.1,5.2,16.1v30.9c0,1.6,0.2,2.8,0.7,3.8c0.5,1,1.3,1.7,2.5,2.2
			c0.7,0.3,1.5,0.6,2.5,0.9c0.5,0.1,1,0.3,1.5,0.4c1.1,0.2,1.9,1.2,1.9,2.4v0.1C463.5-2367,462.4-2365.9,461.1-2365.9z"/>
		<path class="st12" d="M540.2-2426.2c0,1.1-0.8,2-1.8,2.4c-1.3,0.4-2.5,1-3.7,1.7c-1.8,1.1-3.3,2.9-4.5,5.3
			c-3.6,7.7-7.4,15.9-11.2,24.6c-3.9,8.7-8.1,18.1-12.8,28.2c-2.6,5.7-5.2,10.2-7.6,13.6c-2.5,3.4-4.8,6-6.9,7.8c-2,1.7-4,2.9-6,3.7
			c-2,0.8-4,1.1-6,1.1c-4,0-7.3-1.1-9.7-3.4c-2.5-2.2-3.7-4.8-3.7-7.6c0-1.2,0.1-2.3,0.4-3.3c0.3-1,0.9-2.1,1.7-3.2
			c0.7-0.9,1.7-1.7,3.1-2.4c1.4-0.7,3-1,4.8-1c2.4,0,4.6,0.8,6.8,2.5c1.6,1.2,3.3,2.8,5,4.7c1,1.1,2.7,1.1,3.7,0
			c1-1.1,2-2.5,3.2-4.1c1.8-2.5,3.2-5,4.2-7.6c0.2-0.6,0.2-1.3-0.1-1.9c-4.9-10.2-9.2-19-12.9-26.6c-3.9-7.8-8.2-16.4-13.1-26
			c-1.1-2-2.5-3.6-4.3-4.7c-1.2-0.8-2.5-1.3-3.8-1.7c-1.1-0.3-1.9-1.2-1.9-2.4v-0.2c0-1.4,1.1-2.4,2.4-2.4h34c1.4,0,2.4,1.1,2.4,2.4
			l0,0c0,1.2-0.9,2.2-2,2.4c-0.9,0.2-1.9,0.4-2.9,0.7c-1.9,0.6-2.8,1.4-2.8,2.3c0,0.3,0.1,0.7,0.2,1.1c0.1,0.4,0.4,1,0.7,1.7
			c1.4,3,3.5,7.1,6.1,12.3c2,4.1,4.3,8.6,6.9,13.8c0.9,1.9,3.6,1.8,4.4-0.1c1.7-4,3.3-7.5,4.6-10.7c1.8-4.3,3.6-8.6,5.4-12.8
			c0.4-1.1,0.7-1.9,0.7-2.5s0.1-1,0.1-1.2c0-0.8-0.4-1.4-1.1-2c-0.7-0.6-1.6-1.1-2.6-1.5c-1.1-0.4-2.1-0.7-3-1
			c-0.2,0-0.3-0.1-0.5-0.1c-1.1-0.2-1.9-1.2-1.9-2.4v-0.1c0-1.4,1.1-2.4,2.4-2.4h21.3c1.4,0,2.4,1.1,2.4,2.4V-2426.2z"/>
	</g>
	<g>
		<path class="st12" d="M93.2-2365.2c-6,0-11.6-0.8-16.8-2.3c-3.4-1-7-1.9-9.6-2.6c-2.8-0.8-7.1-1-9.4,0.1c-0.1,0-0.2,0.1-0.2,0.1
			l-3,1c-0.2,0.1-0.2,0.1-0.3,0.1c0,0-0.2,0.1-0.2,0c-0.3-2.2-3.5-26-2.4-34c0,0,0.1-0.1,0.2-0.2c0.5-0.4,1.1-0.6,1.7-0.5
			c2.8,0.3,5.3,2.1,6.6,4.7c0.9,1.9,1.9,3.9,3.1,6c2.1,3.8,4.5,7.1,7.2,10.1c2.8,3.1,6,5.6,9.5,7.6c3.5,1.9,7.6,2.9,12.3,2.9
			c6.3,0,11.1-1.5,14.5-4.6c3.4-3.1,5-7,5-11.6c0-3.8-1.4-7.1-4.3-9.7c-2.8-2.6-7.3-4.9-13.2-6.8c-3.9-1.3-7.5-2.4-10.7-3.5
			c-3.3-1.1-6.3-2.2-9.2-3.3c-6.6-2.6-11.5-6.4-14.8-11.3c-3.2-4.9-4.8-10.4-4.8-16.5c0-3.8,0.8-7.5,2.5-11.1
			c1.7-3.5,4.1-6.7,7.3-9.6c3.1-2.6,7-4.8,11.7-6.5c4.8-1.7,10-2.5,15.6-2.5c5.5,0,10.6,0.8,15.4,2.3c2.8,0.9,5.3,1.8,7.4,2.7
			c2.4,1,12.1,7.3,12.1,10.6l0.8,14.8c0.1,3.3-7.2-1.4-9.1-5.2c-1.9-3.8-3.9-6.9-5.9-9.4c-2.3-2.7-4.9-4.8-7.8-6.4
			c-3-1.6-6.4-2.4-10.4-2.4c-5,0-9.1,1.4-12.3,4.2c-3.2,2.8-4.8,6.3-4.8,10.5c0,3.9,1.4,7.2,4.1,9.7c2.8,2.5,7,4.7,12.9,6.6
			c3.4,1.2,6.9,2.3,10.5,3.5c3.6,1.2,6.7,2.3,9.5,3.3c6.7,2.6,11.8,6.2,15.3,10.7c3.5,4.6,5.2,10.2,5.2,17c0,4.3-1,8.4-3,12.4
			c-2,4-4.7,7.3-8.1,9.9c-3.7,2.9-8,5.2-12.8,6.7C105.4-2366,99.7-2365.2,93.2-2365.2z"/>
	</g>
</g>
<g>
	<g>
		<g>
			<g>
				<g>
					
						<radialGradient id="SVGID_12_" cx="65.3033" cy="-2824.8582" r="183.3952" fx="64.1576" fy="-2834.3164" gradientTransform="matrix(-0.9185 0.3954 -0.3954 -0.9185 -12.22 -5283.6113)" gradientUnits="userSpaceOnUse">
						<stop  offset="0" style="stop-color:#ED4617"/>
						<stop  offset="1" style="stop-color:#F16F22"/>
					</radialGradient>
					<path class="st13" d="M872.7-2603c-26.7-51.1-50.4-140.6-13.2-173.6c15.6-13.9,28.3-5.6,160,3.3c63.2,4.3,78,3.6,104.8,14.1
						c14.2,5.6,57.6,23.3,90.4,68.5c11.3,15.6,51.7,71.3,35.7,127.1c-19.8,68.9-114.8,98.4-180.8,96.2
						C943.9-2471.5,878.5-2591.8,872.7-2603z"/>
				</g>
				<g>
					
						<radialGradient id="SVGID_13_" cx="-206.9307" cy="-2198.1411" r="191.5827" fx="-208.1275" fy="-2208.0215" gradientTransform="matrix(-0.7715 -0.6362 0.6362 -0.7715 2337.1819 -4522.8569)" gradientUnits="userSpaceOnUse">
						<stop  offset="0" style="stop-color:#F1DD26"/>
						<stop  offset="1" style="stop-color:#F4BD1E"/>
					</radialGradient>
					<path class="st14" d="M947.2-2856.8c7.9-12.5,35.2-55.5,78.9-61c43.9-5.5,78.5,30.6,147.6,102.8c57.5,60.1,87.2,92,97.3,145.3
						c3.4,17.8,11,57.9-8.7,99.9c-25.9,55.2-88.9,92.2-149.6,86.7c-60.5-5.5-96.7-51.2-121.7-82.9
						C931.1-2641.5,891.6-2769,947.2-2856.8z"/>
				</g>
				<g>
					
						<radialGradient id="SVGID_14_" cx="1107.3536" cy="-2740.9897" r="193.1375" fx="1106.7534" fy="-2752.8608" gradientTransform="matrix(0.9973 7.333645e-02 -7.333645e-02 0.9973 -194.0479 -39.4459)" gradientUnits="userSpaceOnUse">
						<stop  offset="0" style="stop-color:#30A9DC"/>
						<stop  offset="1" style="stop-color:#0C73B8"/>
					</radialGradient>
					<path class="st15" d="M1259.1-2874.1c72.4,40,66.8,326.1-69,373.4c-73.8,25.7-164.2-26.7-211.7-82.5
						c-8.3-9.7-78.9-92.6-51.1-157c12.7-29.4,37-34.4,180.6-88.5C1232.4-2875.4,1243.5-2882.7,1259.1-2874.1z"/>
				</g>
			</g>
			<g>
				<linearGradient id="SVGID_15_" gradientUnits="userSpaceOnUse" x1="982.5449" y1="-2663.7776" x2="1163.0161" y2="-2663.7776">
					<stop  offset="0" style="stop-color:#7118B7;stop-opacity:0.9"/>
					<stop  offset="1" style="stop-color:#7118B7;stop-opacity:0.6"/>
				</linearGradient>
				<path class="st16" d="M1074.3-2551c-13.1,0-25.2-1.6-36.5-4.9c-7.3-2.1-15.1-4-20.9-5.7c-6-1.7-15.4-2.1-20.4,0.3
					c-0.2,0.1-0.3,0.1-0.5,0.2l-6.6,2.2c-0.4,0.1-0.4,0.2-0.6,0.2c0,0-0.5,0.1-0.5-0.1c-0.6-4.7-7.6-56.5-5.2-73.8
					c0-0.1,0.1-0.2,0.3-0.4c1-0.9,2.3-1.3,3.7-1.2c6.1,0.7,11.6,4.5,14.2,10.2c2,4.2,4.2,8.5,6.7,13c4.5,8.2,9.7,15.5,15.7,21.9
					c6.1,6.7,13,12.2,20.6,16.5c7.6,4.2,16.4,6.3,26.6,6.3c13.7,0,24.1-3.3,31.4-10c7.3-6.7,10.9-15.1,10.9-25.3
					c0-8.3-3.1-15.4-9.3-21c-6.2-5.7-15.7-10.6-28.7-14.7c-8.4-2.7-16.2-5.2-23.3-7.6c-7.1-2.3-13.7-4.7-20-7.1
					c-14.4-5.7-25-13.9-32-24.6c-7-10.7-10.5-22.6-10.5-35.8c0-8.3,1.8-16.4,5.4-24.1c3.6-7.7,8.9-14.6,15.8-20.7
					c6.6-5.7,15.1-10.4,25.5-14c10.3-3.6,21.6-5.4,33.8-5.4c11.9,0,23,1.7,33.3,5c6.1,2,11.5,3.9,16.1,5.9
					c5.2,2.3,26.2,15.7,26.3,23l1.7,32.2c0.1,7.1-15.6-3.1-19.7-11.3c-4.1-8.2-8.4-15-12.9-20.5c-4.9-5.8-10.6-10.5-17-14
					c-6.4-3.5-14-5.2-22.6-5.2c-10.8,0-19.7,3.1-26.6,9.2c-6.9,6.1-10.3,13.7-10.3,22.8c0,8.6,3,15.5,9,21c6,5.4,15.3,10.2,28,14.3
					c7.4,2.5,15,5,22.8,7.5c7.7,2.5,14.6,4.9,20.6,7.2c14.6,5.6,25.6,13.4,33.2,23.3c7.6,9.9,11.4,22.2,11.4,36.9
					c0,9.3-2.2,18.2-6.5,26.9c-4.3,8.7-10.1,15.8-17.5,21.6c-8,6.3-17.3,11.2-27.9,14.6C1100.6-2552.7,1088.3-2551,1074.3-2551z"/>
			</g>
		</g>
	</g>
	<g>
		<g>
			<path class="st12" d="M981.4-2357.4c0.7,0.5,0.8,1.5,0.4,2.2c-1.3,1.9-2.8,3.8-4.5,5.5c-2.1,2.1-4.5,4-7.1,5.5
				c-2.8,1.6-5.7,2.8-8.6,3.7c-2.9,0.8-6.2,1.2-10,1.2c-6.3,0-11.7-0.9-16.2-2.7c-4.6-1.8-8.3-4.2-11.3-7.2c-3-3-5.2-6.5-6.6-10.6
				c-1.5-4.1-2.2-8.5-2.2-13.3c0-4.3,0.8-8.5,2.4-12.4c1.6-4,3.8-7.5,6.8-10.6c2.9-3,6.5-5.4,10.9-7.3c4.4-1.9,9.3-2.8,14.7-2.8
				c5.9,0,10.8,0.7,14.6,2.2c3.8,1.4,7,3.4,9.5,6c2.4,2.4,4.2,5.3,5.3,8.5c1.1,3.3,1.7,6.7,1.7,10.3v2.6c0,0.9-0.7,1.6-1.6,1.6
				h-39.8c-0.9,0-1.6,0.7-1.6,1.6c0.2,7.9,1.9,14,5,18.2c3.3,4.5,8.7,6.8,15.9,6.8c4,0,7.6-1.1,10.7-3.3c2.8-1.9,5.2-4.3,7.3-7
				c0.5-0.7,1.5-0.8,2.2-0.3L981.4-2357.4z M956.8-2380.6c0.9,0,1.6-0.7,1.5-1.6c0-2-0.2-4.1-0.4-6.2c-0.3-2.7-0.7-4.8-1.3-6.5
				c-0.7-2-1.7-3.5-3-4.5c-1.2-1-2.8-1.5-4.7-1.5c-3.3,0-5.9,1.7-7.8,5c-1.8,3-2.8,7.7-3.1,14c0,0.9,0.7,1.7,1.6,1.7L956.8-2380.6z"
				/>
			<path class="st12" d="M1108.6-2341.4h-32.9c-1.3,0-2.4-1.1-2.4-2.4v-0.1c0-1.2,0.9-2.3,2.2-2.4c0.2,0,0.5,0,0.7-0.1
				c1-0.1,1.8-0.3,2.5-0.6c0.9-0.4,1.5-1.1,1.8-2.1c0.3-1,0.4-2.3,0.4-3.8v-29.6c0-4.4-0.8-7.6-2.3-9.8c-1.5-2.2-3.8-3.3-6.7-3.3
				c-1.8,0-3.4,0.3-4.9,0.9c-1.4,0.6-2.7,1.3-3.9,2.1c-1.2,0.9-2.2,1.8-2.9,2.7c-0.5,0.6-0.9,1.2-1.2,1.6c-0.3,0.4-0.5,0.9-0.5,1.4
				v33.3c0,1.5,0.2,2.8,0.5,3.7c0.4,1,1,1.7,2,2.3c0.7,0.4,1.4,0.7,2.3,1c0.3,0.1,0.6,0.2,0.9,0.3c1.1,0.3,1.9,1.2,1.9,2.3v0.3
				c0,1.3-1.1,2.4-2.4,2.4h-31.3c-1.3,0-2.4-1.1-2.4-2.4v-0.1c0-1.2,0.9-2.3,2.1-2.4c0.2,0,0.5-0.1,0.8-0.1c1.1-0.1,2-0.3,2.5-0.6
				c0.9-0.5,1.5-1.1,1.7-2c0.3-0.9,0.4-2.2,0.4-3.9v-29.6c0-4.4-0.8-7.6-2.3-9.8c-1.5-2.2-3.8-3.3-6.7-3.3c-1.8,0-3.4,0.3-4.9,0.9
				c-1.4,0.6-2.7,1.3-3.9,2.1c-1.2,0.9-2.2,1.8-2.9,2.7c-0.5,0.6-0.9,1.2-1.2,1.6c-0.3,0.4-0.5,0.9-0.5,1.4v33.3
				c0,1.5,0.2,2.7,0.6,3.7c0.4,1,1.1,1.7,2,2.3c0.7,0.4,1.4,0.7,2.3,1c0.3,0.1,0.6,0.2,0.9,0.3c1.1,0.3,1.9,1.2,1.9,2.3v0.3
				c0,1.3-1.1,2.4-2.4,2.4h-33.2c-1.3,0-2.4-1.1-2.4-2.4v0c0-1.2,0.9-2.3,2.1-2.4c0.4,0,0.7-0.1,1.1-0.1c1.1-0.1,2-0.3,2.7-0.6
				c1.4-0.5,2.3-1.2,2.8-2.2c0.5-1,0.8-2.2,0.8-3.8v-37c0-1.4-0.4-2.7-1.1-4c-0.7-1.3-1.6-2.3-2.6-3c-0.8-0.5-1.7-0.9-2.9-1.3
				c-0.6-0.2-1.2-0.3-1.8-0.4c-1.2-0.2-2-1.2-2-2.3v-0.3c0-1.3,1-2.3,2.3-2.4l27.3-1.5c0.4,0,0.9,0.1,1.2,0.5l0,0
				c0.3,0.3,0.5,0.7,0.5,1.1v8.3h0.3c1.2-1.1,2.6-2.3,4.2-3.8c1.6-1.5,3.2-2.6,4.6-3.5c1.6-1,3.6-1.9,6-2.5c2.5-0.7,5.1-1,8.1-1
				c4.8,0,8.9,1,12.1,3.1c3.2,2.1,5.5,4.9,6.9,8.3h0.6c1.2-1.1,2.7-2.5,4.5-4c1.8-1.5,3.4-2.8,4.9-3.7c1.7-1.1,3.8-1.9,6.3-2.7
				c2.6-0.7,5.3-1.1,8.2-1.1c6.4,0,11.3,1.9,14.8,5.7c3.4,3.8,5.2,9.1,5.2,16.1v30.9c0,1.6,0.2,2.8,0.7,3.8c0.5,1,1.3,1.7,2.5,2.2
				c0.7,0.3,1.5,0.6,2.5,0.9c0.5,0.1,1,0.3,1.5,0.4c1.1,0.2,1.9,1.2,1.9,2.4v0.1C1111-2342.4,1109.9-2341.4,1108.6-2341.4z"/>
			<path class="st12" d="M1238.3-2341.4h-32.9c-1.3,0-2.4-1.1-2.4-2.4v-0.1c0-1.2,0.9-2.3,2.2-2.4c0.2,0,0.5,0,0.7-0.1
				c1-0.1,1.8-0.3,2.5-0.6c0.9-0.4,1.5-1.1,1.8-2.1c0.3-1,0.4-2.3,0.4-3.8v-29.6c0-4.4-0.8-7.6-2.3-9.8c-1.5-2.2-3.8-3.3-6.7-3.3
				c-1.8,0-3.4,0.3-4.9,0.9c-1.4,0.6-2.7,1.3-3.9,2.1c-1.2,0.9-2.2,1.8-2.9,2.7c-0.5,0.6-0.9,1.2-1.2,1.6c-0.3,0.4-0.5,0.9-0.5,1.4
				v33.3c0,1.5,0.2,2.8,0.5,3.7c0.4,1,1,1.7,2,2.3c0.7,0.4,1.4,0.7,2.3,1c0.3,0.1,0.6,0.2,0.9,0.3c1.1,0.3,1.9,1.2,1.9,2.3v0.3
				c0,1.3-1.1,2.4-2.4,2.4h-31.3c-1.3,0-2.4-1.1-2.4-2.4v-0.1c0-1.2,0.9-2.3,2.1-2.4c0.2,0,0.5-0.1,0.8-0.1c1.1-0.1,2-0.3,2.5-0.6
				c0.9-0.5,1.5-1.1,1.7-2c0.3-0.9,0.4-2.2,0.4-3.9v-29.6c0-4.4-0.8-7.6-2.3-9.8c-1.5-2.2-3.8-3.3-6.7-3.3c-1.8,0-3.4,0.3-4.9,0.9
				c-1.4,0.6-2.7,1.3-3.9,2.1c-1.2,0.9-2.2,1.8-2.9,2.7c-0.5,0.6-0.9,1.2-1.2,1.6c-0.3,0.4-0.5,0.9-0.5,1.4v33.3
				c0,1.5,0.2,2.7,0.6,3.7c0.4,1,1.1,1.7,2,2.3c0.7,0.4,1.4,0.7,2.3,1c0.3,0.1,0.6,0.2,0.9,0.3c1.1,0.3,1.9,1.2,1.9,2.3v0.3
				c0,1.3-1.1,2.4-2.4,2.4H1117c-1.3,0-2.4-1.1-2.4-2.4v0c0-1.2,0.9-2.3,2.1-2.4c0.4,0,0.7-0.1,1.1-0.1c1.1-0.1,2-0.3,2.7-0.6
				c1.4-0.5,2.3-1.2,2.8-2.2c0.5-1,0.8-2.2,0.8-3.8v-37c0-1.4-0.4-2.7-1.1-4c-0.7-1.3-1.6-2.3-2.6-3c-0.8-0.5-1.7-0.9-2.9-1.3
				c-0.6-0.2-1.2-0.3-1.8-0.4c-1.2-0.2-2-1.2-2-2.3v-0.3c0-1.3,1-2.3,2.3-2.4l27.3-1.5c0.4,0,0.9,0.1,1.2,0.5l0,0
				c0.3,0.3,0.5,0.7,0.5,1.1v8.3h0.3c1.2-1.1,2.6-2.3,4.2-3.8c1.6-1.5,3.2-2.6,4.6-3.5c1.6-1,3.6-1.9,6-2.5c2.5-0.7,5.1-1,8.1-1
				c4.8,0,8.9,1,12.1,3.1c3.2,2.1,5.5,4.9,6.9,8.3h0.6c1.2-1.1,2.7-2.5,4.5-4c1.8-1.5,3.4-2.8,4.9-3.7c1.7-1.1,3.8-1.9,6.3-2.7
				c2.6-0.7,5.3-1.1,8.2-1.1c6.4,0,11.3,1.9,14.8,5.7c3.4,3.8,5.2,9.1,5.2,16.1v30.9c0,1.6,0.2,2.8,0.7,3.8c0.5,1,1.3,1.7,2.5,2.2
				c0.7,0.3,1.5,0.6,2.5,0.9c0.5,0.1,1,0.3,1.5,0.4c1.1,0.2,1.9,1.2,1.9,2.4v0.1C1240.7-2342.4,1239.7-2341.4,1238.3-2341.4z"/>
			<path class="st12" d="M1317.4-2401.6c0,1.1-0.8,2-1.8,2.4c-1.3,0.4-2.5,1-3.7,1.7c-1.8,1.1-3.3,2.9-4.5,5.3
				c-3.6,7.7-7.4,15.9-11.2,24.6c-3.9,8.7-8.1,18.1-12.8,28.2c-2.6,5.7-5.2,10.2-7.6,13.6c-2.5,3.4-4.8,6-6.9,7.8
				c-2,1.7-4,2.9-6,3.7c-2,0.8-4,1.1-6,1.1c-4,0-7.3-1.1-9.7-3.4c-2.5-2.2-3.7-4.8-3.7-7.6c0-1.2,0.1-2.3,0.4-3.3
				c0.3-1,0.9-2.1,1.7-3.2c0.7-0.9,1.7-1.7,3.1-2.4c1.4-0.7,3-1,4.8-1c2.4,0,4.6,0.8,6.8,2.5c1.6,1.2,3.3,2.8,5,4.7
				c1,1.1,2.7,1.1,3.7,0c1-1.1,2-2.5,3.2-4.1c1.8-2.5,3.2-5,4.2-7.6c0.2-0.6,0.2-1.3-0.1-1.9c-4.9-10.2-9.2-19-12.9-26.6
				c-3.9-7.8-8.2-16.4-13.1-26c-1.1-2-2.5-3.6-4.3-4.7c-1.2-0.8-2.5-1.3-3.8-1.7c-1.1-0.3-1.9-1.2-1.9-2.4v-0.2
				c0-1.4,1.1-2.4,2.4-2.4h34c1.4,0,2.4,1.1,2.4,2.4l0,0c0,1.2-0.9,2.2-2,2.4c-0.9,0.2-1.9,0.4-2.9,0.7c-1.9,0.6-2.8,1.4-2.8,2.3
				c0,0.3,0.1,0.7,0.2,1.1c0.1,0.4,0.4,1,0.7,1.7c1.4,3,3.5,7.1,6.1,12.3c2,4.1,4.3,8.6,6.9,13.8c0.9,1.9,3.6,1.8,4.4-0.1
				c1.7-4,3.3-7.5,4.6-10.7c1.8-4.3,3.6-8.6,5.4-12.8c0.4-1.1,0.7-1.9,0.7-2.5s0.1-1,0.1-1.2c0-0.8-0.4-1.4-1.1-2
				c-0.7-0.6-1.6-1.1-2.6-1.5c-1.1-0.4-2.1-0.7-3-1c-0.2,0-0.3-0.1-0.5-0.1c-1.1-0.2-1.9-1.2-1.9-2.4v-0.1c0-1.4,1.1-2.4,2.4-2.4
				h21.3c1.4,0,2.4,1.1,2.4,2.4V-2401.6z"/>
		</g>
		<g>
			<path class="st12" d="M870.4-2340.7c-6,0-11.6-0.8-16.8-2.3c-3.4-1-7-1.9-9.6-2.6c-2.8-0.8-7.1-1-9.4,0.1c-0.1,0-0.2,0.1-0.2,0.1
				l-3,1c-0.2,0.1-0.2,0.1-0.3,0.1c0,0-0.2,0.1-0.2,0c-0.3-2.2-3.5-26-2.4-34c0,0,0.1-0.1,0.2-0.2c0.5-0.4,1.1-0.6,1.7-0.5
				c2.8,0.3,5.3,2.1,6.6,4.7c0.9,1.9,1.9,3.9,3.1,6c2.1,3.8,4.5,7.1,7.2,10.1c2.8,3.1,6,5.6,9.5,7.6c3.5,1.9,7.6,2.9,12.3,2.9
				c6.3,0,11.1-1.5,14.5-4.6c3.4-3.1,5-7,5-11.6c0-3.8-1.4-7.1-4.3-9.7c-2.8-2.6-7.3-4.9-13.2-6.8c-3.9-1.3-7.5-2.4-10.7-3.5
				c-3.3-1.1-6.3-2.2-9.2-3.3c-6.6-2.6-11.5-6.4-14.8-11.3c-3.2-4.9-4.8-10.4-4.8-16.5c0-3.8,0.8-7.5,2.5-11.1
				c1.7-3.5,4.1-6.7,7.3-9.6c3.1-2.6,7-4.8,11.7-6.5c4.8-1.7,10-2.5,15.6-2.5c5.5,0,10.6,0.8,15.4,2.3c2.8,0.9,5.3,1.8,7.4,2.7
				c2.4,1,12.1,7.3,12.1,10.6l0.8,14.8c0.1,3.3-7.2-1.4-9.1-5.2s-3.9-6.9-5.9-9.4c-2.3-2.7-4.9-4.8-7.8-6.4c-3-1.6-6.4-2.4-10.4-2.4
				c-5,0-9.1,1.4-12.3,4.2c-3.2,2.8-4.8,6.3-4.8,10.5c0,3.9,1.4,7.2,4.1,9.7c2.8,2.5,7,4.7,12.9,6.6c3.4,1.2,6.9,2.3,10.5,3.5
				c3.6,1.2,6.7,2.3,9.5,3.3c6.7,2.6,11.8,6.2,15.3,10.7c3.5,4.6,5.2,10.2,5.2,17c0,4.3-1,8.4-3,12.4c-2,4-4.7,7.3-8.1,9.9
				c-3.7,2.9-8,5.2-12.8,6.7C882.6-2341.5,876.9-2340.7,870.4-2340.7z"/>
		</g>
	</g>
</g>
<g>
	<line class="st17" x1="708.5" y1="-1352.7" x2="708.5" y2="-1033.7"/>
	<g>
		<g>
			<path class="st18" d="M1005-1162.4c1,0.7,1.2,2.1,0.5,3.1c-1.9,2.8-4,5.4-6.5,7.9c-3,3.1-6.4,5.7-10.2,7.9
				c-4.1,2.3-8.2,4-12.3,5.2c-4.2,1.2-8.9,1.8-14.3,1.8c-9,0-16.7-1.3-23.3-3.8c-6.5-2.5-11.9-6-16.2-10.3
				c-4.2-4.3-7.4-9.4-9.5-15.2c-2.1-5.9-3.1-12.2-3.1-19.1c0-6.2,1.1-12.1,3.4-17.8c2.3-5.7,5.5-10.7,9.7-15.2
				c4.1-4.3,9.3-7.8,15.6-10.5c6.3-2.7,13.3-4,21.1-4c8.5,0,15.5,1,20.9,3.1c5.5,2.1,10,4.9,13.6,8.6c3.5,3.5,6,7.5,7.6,12.2
				c1.6,4.7,2.4,9.6,2.4,14.8v3.7c0,1.2-1,2.2-2.2,2.2h-57c-1.2,0-2.3,1-2.2,2.3c0.3,11.3,2.7,20,7.2,26.1
				c4.8,6.5,12.4,9.7,22.8,9.7c5.7,0,10.8-1.6,15.4-4.7c4-2.7,7.4-6.1,10.4-10.1c0.7-1,2.1-1.2,3.1-0.4L1005-1162.4z M969.7-1195.7
				c1.2,0,2.2-1,2.2-2.3c-0.1-2.9-0.2-5.9-0.5-9c-0.4-3.8-1-6.9-1.9-9.4c-1-2.9-2.4-5-4.2-6.5c-1.8-1.5-4-2.2-6.8-2.2
				c-4.7,0-8.4,2.4-11.2,7.1c-2.6,4.4-4.1,11.1-4.5,20.1c-0.1,1.3,1,2.4,2.3,2.4L969.7-1195.7z"/>
			<path class="st18" d="M1187.3-1139.4h-47.2c-1.9,0-3.4-1.5-3.4-3.4v-0.1c0-1.8,1.3-3.3,3.1-3.4c0.3,0,0.7-0.1,1-0.1
				c1.4-0.1,2.6-0.4,3.6-0.9c1.3-0.6,2.2-1.6,2.5-3c0.4-1.4,0.5-3.3,0.5-5.5v-42.5c0-6.2-1.1-10.9-3.3-14.1
				c-2.2-3.1-5.4-4.7-9.5-4.7c-2.6,0-4.9,0.4-7,1.2c-2,0.8-3.9,1.8-5.6,3c-1.8,1.3-3.1,2.5-4.1,3.8c-0.7,0.9-1.3,1.7-1.8,2.4
				c-0.4,0.6-0.7,1.3-0.7,2.1l0,47.7c0,2.2,0.3,4,0.8,5.3c0.5,1.4,1.5,2.4,2.8,3.2c1,0.5,2.1,1,3.3,1.5c0.4,0.1,0.8,0.3,1.3,0.4
				c1.5,0.4,2.7,1.8,2.7,3.4v0.4c0,1.9-1.5,3.4-3.4,3.4h-44.8c-1.9,0-3.4-1.5-3.4-3.4v-0.1c0-1.8,1.3-3.2,3.1-3.4
				c0.4,0,0.7-0.1,1.1-0.1c1.6-0.2,2.8-0.5,3.6-0.9c1.3-0.7,2.1-1.6,2.5-2.9c0.4-1.3,0.6-3.2,0.6-5.6v-42.5c0-6.2-1.1-10.9-3.3-14.1
				c-2.2-3.1-5.4-4.7-9.5-4.7c-2.6,0-4.9,0.4-7,1.2c-2,0.8-3.9,1.8-5.6,3c-1.8,1.3-3.1,2.5-4.1,3.8c-0.7,0.9-1.3,1.7-1.8,2.4
				c-0.4,0.6-0.7,1.3-0.7,2.1l0,47.7c0,2.1,0.3,3.9,0.8,5.3c0.5,1.4,1.5,2.5,2.9,3.3c1,0.5,2.1,1,3.3,1.5c0.4,0.1,0.8,0.3,1.3,0.4
				c1.6,0.4,2.7,1.8,2.7,3.4v0.4c0,1.9-1.5,3.4-3.4,3.4h-47.6c-1.9,0-3.4-1.5-3.4-3.4v-0.1c0-1.8,1.3-3.2,3.1-3.4
				c0.5-0.1,1-0.1,1.6-0.2c1.5-0.2,2.8-0.5,3.9-0.9c1.9-0.7,3.3-1.8,4-3.1c0.7-1.4,1.1-3.2,1.1-5.4v-53c0-1.9-0.5-3.8-1.5-5.7
				c-1-1.9-2.3-3.3-3.7-4.3c-1.1-0.7-2.5-1.3-4.1-1.8c-0.8-0.2-1.7-0.4-2.6-0.6c-1.7-0.3-2.9-1.7-2.9-3.4l0-0.4
				c0-1.8,1.4-3.3,3.3-3.4l39.2-2.1c0.6,0,1.3,0.2,1.7,0.7l0,0c0.4,0.4,0.7,1,0.7,1.6v11.9h0.4c1.7-1.5,3.7-3.3,6.1-5.4
				c2.3-2.1,4.5-3.8,6.6-5.1c2.2-1.5,5.1-2.7,8.6-3.6c3.5-1,7.4-1.5,11.6-1.5c6.9,0,12.7,1.5,17.3,4.5c4.6,3,7.9,7,9.9,12h0.8
				c1.8-1.6,3.9-3.6,6.5-5.8c2.5-2.2,4.9-4,7-5.3c2.4-1.5,5.4-2.8,9.1-3.8c3.7-1,7.6-1.5,11.8-1.5c9.2,0,16.2,2.7,21.2,8.1
				c4.9,5.4,7.4,13.1,7.4,23v44.2c0,2.2,0.3,4,1,5.4c0.7,1.4,1.9,2.4,3.6,3.1c1,0.4,2.2,0.8,3.6,1.3c0.7,0.2,1.4,0.4,2.2,0.5
				c1.6,0.3,2.7,1.7,2.7,3.4v0.2C1190.8-1140.9,1189.2-1139.4,1187.3-1139.4z"/>
			<path class="st18" d="M1373.3-1139.4h-47.2c-1.9,0-3.4-1.5-3.4-3.4v-0.1c0-1.8,1.3-3.3,3.1-3.4c0.3,0,0.7-0.1,1-0.1
				c1.4-0.1,2.6-0.4,3.6-0.9c1.3-0.6,2.2-1.6,2.5-3c0.4-1.4,0.5-3.3,0.5-5.5v-42.5c0-6.2-1.1-10.9-3.3-14.1
				c-2.2-3.1-5.4-4.7-9.5-4.7c-2.6,0-4.9,0.4-7,1.2c-2,0.8-3.9,1.8-5.6,3c-1.8,1.3-3.1,2.5-4.1,3.8c-0.7,0.9-1.3,1.7-1.8,2.4
				c-0.4,0.6-0.7,1.3-0.7,2.1v47.7c0,2.2,0.3,4,0.8,5.3c0.5,1.4,1.5,2.4,2.8,3.2c1,0.5,2.1,1,3.3,1.5c0.4,0.1,0.8,0.3,1.3,0.4
				c1.5,0.4,2.7,1.8,2.7,3.4v0.4c0,1.9-1.5,3.4-3.4,3.4H1264c-1.9,0-3.4-1.5-3.4-3.4v-0.1c0-1.8,1.3-3.2,3.1-3.4
				c0.4,0,0.7-0.1,1.1-0.1c1.6-0.2,2.8-0.5,3.6-0.9c1.3-0.7,2.1-1.6,2.5-2.9c0.4-1.3,0.6-3.2,0.6-5.6v-42.5c0-6.2-1.1-10.9-3.3-14.1
				c-2.2-3.1-5.4-4.7-9.5-4.7c-2.6,0-4.9,0.4-7,1.2c-2,0.8-3.9,1.8-5.6,3c-1.8,1.3-3.1,2.5-4.1,3.8c-0.7,0.9-1.3,1.7-1.8,2.4
				c-0.4,0.6-0.7,1.3-0.7,2.1v47.7c0,2.1,0.3,3.9,0.8,5.3c0.5,1.4,1.5,2.5,2.9,3.3c1,0.5,2.1,1,3.3,1.5c0.4,0.1,0.8,0.3,1.3,0.4
				c1.6,0.4,2.7,1.8,2.7,3.4v0.4c0,1.9-1.5,3.4-3.4,3.4h-47.6c-1.9,0-3.4-1.5-3.4-3.4v-0.1c0-1.8,1.3-3.2,3.1-3.4
				c0.5-0.1,1-0.1,1.6-0.2c1.5-0.2,2.8-0.5,3.9-0.9c1.9-0.7,3.3-1.8,4-3.1c0.7-1.4,1.1-3.2,1.1-5.4v-53c0-1.9-0.5-3.8-1.5-5.7
				c-1-1.9-2.3-3.3-3.7-4.3c-1.1-0.7-2.5-1.3-4.1-1.8c-0.8-0.2-1.7-0.4-2.6-0.6c-1.7-0.3-2.9-1.7-2.9-3.4v-0.4
				c0-1.8,1.4-3.3,3.3-3.4l39.2-2.1c0.6,0,1.3,0.2,1.7,0.7l0,0c0.4,0.4,0.7,1,0.7,1.6v11.9h0.4c1.7-1.5,3.7-3.3,6.1-5.4
				c2.3-2.1,4.5-3.8,6.6-5.1c2.2-1.5,5.1-2.7,8.6-3.6c3.5-1,7.4-1.5,11.6-1.5c6.9,0,12.7,1.5,17.3,4.5c4.6,3,7.9,7,9.9,12h0.8
				c1.8-1.6,3.9-3.6,6.5-5.8c2.5-2.2,4.9-4,7-5.3c2.4-1.5,5.4-2.8,9.1-3.8c3.7-1,7.6-1.5,11.8-1.5c9.2,0,16.2,2.7,21.2,8.1
				c4.9,5.4,7.4,13.1,7.4,23v44.2c0,2.2,0.3,4,1,5.4c0.7,1.4,1.9,2.4,3.6,3.1c1,0.4,2.2,0.8,3.6,1.3c0.7,0.2,1.4,0.4,2.2,0.5
				c1.6,0.3,2.7,1.7,2.7,3.4v0.2C1376.7-1140.9,1375.2-1139.4,1373.3-1139.4z"/>
			<path class="st18" d="M1486.6-1225.8c0,1.6-1.1,2.9-2.6,3.4c-1.8,0.6-3.6,1.4-5.4,2.5c-2.6,1.6-4.7,4.2-6.4,7.6
				c-5.2,11-10.6,22.8-16.1,35.3c-5.5,12.5-11.6,26-18.4,40.4c-3.8,8.1-7.4,14.6-10.9,19.5c-3.5,4.9-6.8,8.6-9.9,11.2
				c-2.9,2.4-5.8,4.2-8.6,5.3c-2.9,1.1-5.7,1.6-8.6,1.6c-5.8,0-10.4-1.6-14-4.8c-3.5-3.2-5.3-6.8-5.3-10.8c0-1.7,0.2-3.3,0.6-4.7
				c0.4-1.5,1.2-3,2.5-4.6c1-1.3,2.5-2.5,4.5-3.4c2-0.9,4.3-1.4,6.9-1.4c3.4,0,6.6,1.2,9.7,3.5c2.3,1.8,4.7,4,7.1,6.8
				c1.4,1.6,3.9,1.6,5.3,0c1.4-1.6,2.9-3.6,4.6-5.9c2.6-3.5,4.6-7.2,6-10.9c0.3-0.9,0.3-1.9-0.1-2.7c-7-14.6-13.1-27.3-18.6-38.1
				c-5.6-11.1-11.8-23.5-18.7-37.2c-1.5-2.9-3.5-5.2-6.1-6.8c-1.7-1.1-3.5-1.9-5.4-2.4c-1.6-0.4-2.7-1.8-2.7-3.4v-0.3
				c0-1.9,1.6-3.5,3.5-3.5h48.7c1.9,0,3.5,1.6,3.5,3.5l0,0c0,1.7-1.2,3.2-2.9,3.5c-1.3,0.2-2.7,0.6-4.2,1.1c-2.7,0.9-4,1.9-4,3.3
				c0,0.5,0.1,1,0.3,1.6c0.2,0.6,0.5,1.4,1,2.5c2.1,4.2,5,10.1,8.8,17.7c2.9,5.8,6.2,12.4,9.9,19.7c1.3,2.7,5.2,2.6,6.4-0.2
				c2.5-5.7,4.7-10.8,6.6-15.3c2.6-6.2,5.2-12.3,7.7-18.3c0.6-1.5,1-2.7,1-3.6s0.1-1.5,0.1-1.8c0-1.1-0.5-2-1.6-2.9
				c-1.1-0.8-2.3-1.5-3.8-2.1c-1.5-0.6-3-1.1-4.4-1.4c-0.2-0.1-0.5-0.1-0.7-0.1c-1.6-0.3-2.8-1.8-2.8-3.4v-0.2
				c0-1.9,1.6-3.5,3.5-3.5h30.6c1.9,0,3.5,1.6,3.5,3.5V-1225.8z"/>
		</g>
		<g>
			<path class="st18" d="M845.9-1138.4c-8.6,0-16.7-1.1-24.1-3.2c-4.8-1.4-10-2.7-13.8-3.7c-4-1.1-10.2-1.4-13.5,0.2
				c-0.1,0.1-0.2,0.1-0.3,0.1l-4.4,1.5c-0.2,0.1-0.3,0.1-0.4,0.1c0,0-0.3,0.1-0.3-0.1c-0.4-3.1-5-37.3-3.5-48.8
				c0-0.1,0.1-0.1,0.2-0.3c0.7-0.6,1.5-0.9,2.4-0.8c4.1,0.4,7.6,3,9.4,6.7c1.3,2.8,2.8,5.6,4.4,8.6c3,5.4,6.4,10.2,10.4,14.5
				c4,4.5,8.6,8.1,13.6,10.9c5,2.8,10.9,4.2,17.6,4.2c9,0,15.9-2.2,20.8-6.6c4.8-4.4,7.2-10,7.2-16.7c0-5.5-2-10.1-6.1-13.9
				c-4.1-3.8-10.4-7-19-9.7c-5.6-1.8-10.7-3.5-15.4-5c-4.7-1.5-9.1-3.1-13.2-4.7c-9.5-3.8-16.5-9.2-21.2-16.2
				c-4.6-7-6.9-14.9-6.9-23.6c0-5.5,1.2-10.8,3.6-15.9c2.4-5.1,5.9-9.7,10.5-13.7c4.4-3.8,10-6.9,16.8-9.3
				c6.8-2.4,14.3-3.6,22.3-3.6c7.8,0,15.2,1.1,22,3.3c4.1,1.3,7.6,2.6,10.6,3.9c3.5,1.5,17.3,10.4,17.4,15.2l1.1,21.3
				c0.1,4.7-10.3-2.1-13-7.5c-2.7-5.4-5.5-9.9-8.5-13.5c-3.3-3.9-7-6.9-11.3-9.2c-4.2-2.3-9.2-3.4-14.9-3.4c-7.2,0-13,2-17.6,6.1
				c-4.5,4.1-6.8,9.1-6.8,15.1c0,5.7,2,10.3,5.9,13.9c3.9,3.6,10.1,6.7,18.5,9.5c4.9,1.7,9.9,3.3,15,5c5.1,1.7,9.7,3.3,13.6,4.8
				c9.6,3.7,16.9,8.9,22,15.4c5,6.5,7.5,14.7,7.5,24.4c0,6.1-1.4,12-4.3,17.7c-2.9,5.7-6.7,10.5-11.5,14.3
				c-5.3,4.2-11.4,7.4-18.4,9.7C863.4-1139.6,855.2-1138.4,845.9-1138.4z"/>
		</g>
	</g>
</g>
<g>
	<g>
		<g>
			
				<radialGradient id="SVGID_16_" cx="-171.8983" cy="-4290.7061" r="231.3187" fx="-173.3434" fy="-4302.6357" gradientTransform="matrix(-0.9185 0.3954 -0.3954 -0.9185 -12.22 -5283.6113)" gradientUnits="userSpaceOnUse">
				<stop  offset="0" style="stop-color:#ED4617"/>
				<stop  offset="1" style="stop-color:#F16F22"/>
			</radialGradient>
			<path class="st19" d="M1625.2-1334.7c-33.6-64.4-63.5-177.3-16.6-218.9c19.7-17.5,35.7-7.1,201.8,4.2
				c79.8,5.4,98.4,4.5,132.2,17.8c17.9,7,72.7,29.3,114,86.4c14.3,19.7,65.2,90,45,160.3c-25,87-144.7,124.1-228.1,121.4
				C1714.9-1168.9,1632.6-1320.6,1625.2-1334.7z"/>
		</g>
		<g>
			
				<radialGradient id="SVGID_17_" cx="-1624.5692" cy="-2641.8469" r="241.6458" fx="-1626.0789" fy="-2654.3093" gradientTransform="matrix(-0.7715 -0.6362 0.6362 -0.7715 2337.1819 -4522.8569)" gradientUnits="userSpaceOnUse">
				<stop  offset="0" style="stop-color:#F1DD26"/>
				<stop  offset="1" style="stop-color:#F4BD1E"/>
			</radialGradient>
			<path class="st20" d="M1719.1-1654.7c10-15.8,44.3-70,99.5-76.9c55.4-6.9,99,38.6,186.2,129.7c72.6,75.8,110,116,122.8,183.3
				c4.3,22.5,13.9,73-11,126c-32.7,69.6-112.1,116.4-188.7,109.4c-76.3-6.9-122-64.6-153.5-104.6
				C1698.8-1383.2,1649-1544.1,1719.1-1654.7z"/>
		</g>
		<g>
			
				<radialGradient id="SVGID_18_" cx="2011.3262" cy="-1558.9854" r="243.6069" fx="2010.5691" fy="-1573.9586" gradientTransform="matrix(0.9973 7.333645e-02 -7.333645e-02 0.9973 -194.0479 -39.4459)" gradientUnits="userSpaceOnUse">
				<stop  offset="0" style="stop-color:#30A9DC"/>
				<stop  offset="1" style="stop-color:#0C73B8"/>
			</radialGradient>
			<path class="st21" d="M2112.6-1676.6c91.4,50.5,84.3,411.3-87,471c-93.1,32.4-207.1-33.7-267-104c-10.4-12.2-99.5-116.8-64.4-198
				c16-37,46.7-43.4,227.8-111.6C2078.9-1678.3,2092.9-1687.5,2112.6-1676.6z"/>
		</g>
	</g>
	<g>
		<linearGradient id="SVGID_19_" gradientUnits="userSpaceOnUse" x1="1787.3236" y1="-1406.2035" x2="2000.9202" y2="-1406.2035">
			<stop  offset="0" style="stop-color:#7118B7;stop-opacity:0.9"/>
			<stop  offset="1" style="stop-color:#7118B7;stop-opacity:0.6"/>
		</linearGradient>
		<path class="st22" d="M1895.9-1272.7c-15.5,0-29.9-1.9-43.2-5.8c-8.6-2.5-17.8-4.8-24.7-6.7c-7.2-2-18.2-2.4-24.1,0.3
			c-0.2,0.1-0.4,0.2-0.6,0.2l-7.8,2.6c-0.4,0.2-0.5,0.2-0.7,0.3c0,0-0.6,0.2-0.6-0.1c-0.8-5.6-9-66.8-6.2-87.3
			c0-0.1,0.2-0.3,0.4-0.5c1.2-1,2.8-1.5,4.3-1.4c7.3,0.8,13.7,5.3,16.8,12c2.4,5,5,10.1,7.9,15.4c5.4,9.7,11.5,18.3,18.5,25.9
			c7.3,8,15.4,14.5,24.3,19.5c9,5,19.5,7.5,31.5,7.5c16.2,0,28.6-4,37.2-11.9c8.6-7.9,12.9-17.9,12.9-29.9c0-9.9-3.7-18.2-11-24.9
			c-7.3-6.7-18.6-12.5-34-17.4c-10-3.2-19.2-6.2-27.6-9c-8.4-2.7-16.3-5.6-23.6-8.4c-17-6.8-29.6-16.5-37.9-29.1
			c-8.3-12.6-12.4-26.7-12.4-42.3c0-9.9,2.1-19.4,6.4-28.5c4.3-9.1,10.5-17.3,18.7-24.6c7.8-6.8,17.9-12.3,30.1-16.6
			c12.2-4.3,25.6-6.4,39.9-6.4c14,0,27.2,2,39.4,5.9c7.3,2.3,13.6,4.7,19,7c6.2,2.7,31,18.6,31.1,27.2l2,38.1
			c0.1,8.4-18.5-3.7-23.3-13.4s-9.9-17.8-15.2-24.2c-5.8-6.9-12.5-12.4-20.2-16.5c-7.6-4.1-16.5-6.2-26.8-6.2
			c-12.8,0-23.3,3.6-31.5,10.9c-8.1,7.3-12.2,16.3-12.2,27c0,10.1,3.5,18.4,10.6,24.8c7.1,6.4,18.1,12.1,33.1,17
			c8.8,3,17.8,6,26.9,8.9c9.2,3,17.3,5.8,24.4,8.6c17.2,6.7,30.3,15.9,39.3,27.6c9,11.7,13.5,26.3,13.5,43.7c0,11-2.6,21.6-7.7,31.8
			c-5.1,10.2-12,18.8-20.7,25.5c-9.5,7.5-20.5,13.3-33,17.3C1927.1-1274.7,1912.5-1272.7,1895.9-1272.7z"/>
	</g>
</g>
<g>
	<line class="st17" x1="2247.6" y1="-1526.6" x2="2247.6" y2="-1207.6"/>
	<g>
		<g>
			<path class="st23" d="M2544.1-1336.3c1,0.7,1.2,2.1,0.5,3.1c-1.9,2.8-4,5.4-6.5,7.9c-3,3.1-6.4,5.7-10.2,7.9
				c-4.1,2.3-8.2,4-12.3,5.2c-4.2,1.2-8.9,1.8-14.3,1.8c-9,0-16.7-1.3-23.3-3.8c-6.5-2.5-11.9-6-16.2-10.3
				c-4.2-4.3-7.4-9.4-9.5-15.2c-2.1-5.9-3.1-12.2-3.1-19.1c0-6.2,1.1-12.1,3.4-17.8c2.3-5.7,5.5-10.7,9.7-15.2
				c4.1-4.3,9.3-7.8,15.6-10.5c6.3-2.7,13.3-4,21.1-4c8.5,0,15.5,1,20.9,3.1c5.5,2.1,10,4.9,13.6,8.6c3.5,3.5,6,7.5,7.6,12.2
				c1.6,4.7,2.4,9.6,2.4,14.8v3.7c0,1.2-1,2.2-2.2,2.2h-57c-1.2,0-2.3,1-2.2,2.3c0.3,11.3,2.7,20,7.2,26.1
				c4.8,6.5,12.4,9.7,22.8,9.7c5.7,0,10.8-1.6,15.4-4.7c4-2.7,7.4-6.1,10.4-10.1c0.7-1,2.1-1.2,3.1-0.4L2544.1-1336.3z
				 M2508.8-1369.6c1.2,0,2.2-1,2.2-2.3c-0.1-2.9-0.2-5.9-0.5-9c-0.4-3.8-1-6.9-1.9-9.4c-1-2.9-2.4-5-4.2-6.5
				c-1.8-1.5-4-2.2-6.8-2.2c-4.7,0-8.4,2.4-11.2,7.1c-2.6,4.4-4.1,11.1-4.5,20.1c-0.1,1.3,1,2.4,2.3,2.4L2508.8-1369.6z"/>
			<path class="st23" d="M2726.5-1313.3h-47.2c-1.9,0-3.4-1.5-3.4-3.4v-0.1c0-1.8,1.3-3.3,3.1-3.4c0.3,0,0.7-0.1,1-0.1
				c1.4-0.1,2.6-0.4,3.6-0.9c1.3-0.6,2.2-1.6,2.5-3c0.4-1.4,0.5-3.3,0.5-5.5v-42.5c0-6.2-1.1-10.9-3.3-14.1
				c-2.2-3.1-5.4-4.7-9.5-4.7c-2.6,0-4.9,0.4-7,1.2c-2,0.8-3.9,1.8-5.6,3c-1.8,1.3-3.1,2.5-4.1,3.8c-0.7,0.9-1.3,1.7-1.8,2.4
				c-0.4,0.6-0.7,1.3-0.7,2.1v47.7c0,2.2,0.3,4,0.8,5.3c0.5,1.4,1.5,2.4,2.8,3.2c1,0.5,2.1,1,3.3,1.5c0.4,0.1,0.8,0.3,1.3,0.4
				c1.5,0.4,2.7,1.8,2.7,3.4v0.4c0,1.9-1.5,3.4-3.4,3.4h-44.8c-1.9,0-3.4-1.5-3.4-3.4v-0.1c0-1.8,1.3-3.2,3.1-3.4
				c0.4,0,0.7-0.1,1.1-0.1c1.6-0.2,2.8-0.5,3.6-0.9c1.3-0.7,2.1-1.6,2.5-2.9c0.4-1.3,0.6-3.2,0.6-5.6v-42.5c0-6.2-1.1-10.9-3.3-14.1
				c-2.2-3.1-5.4-4.7-9.5-4.7c-2.6,0-4.9,0.4-7,1.2c-2,0.8-3.9,1.8-5.6,3c-1.8,1.3-3.1,2.5-4.1,3.8c-0.7,0.9-1.3,1.7-1.8,2.4
				c-0.4,0.6-0.7,1.3-0.7,2.1l0,47.7c0,2.1,0.3,3.9,0.8,5.3c0.5,1.4,1.5,2.5,2.9,3.3c1,0.5,2.1,1,3.3,1.5c0.4,0.1,0.8,0.3,1.3,0.4
				c1.6,0.4,2.7,1.8,2.7,3.4v0.4c0,1.9-1.5,3.4-3.4,3.4h-47.6c-1.9,0-3.4-1.5-3.4-3.4v-0.1c0-1.8,1.3-3.2,3.1-3.4
				c0.5-0.1,1-0.1,1.6-0.2c1.5-0.2,2.8-0.5,3.9-0.9c1.9-0.7,3.3-1.8,4-3.1c0.7-1.4,1.1-3.2,1.1-5.4v-53c0-1.9-0.5-3.8-1.5-5.7
				c-1-1.9-2.3-3.3-3.7-4.3c-1.1-0.7-2.5-1.3-4.1-1.8c-0.8-0.2-1.7-0.4-2.6-0.6c-1.7-0.3-2.9-1.7-2.9-3.4v-0.4
				c0-1.8,1.4-3.3,3.3-3.4l39.2-2.1c0.6,0,1.3,0.2,1.7,0.7l0,0c0.4,0.4,0.7,1,0.7,1.6v11.9h0.4c1.7-1.5,3.7-3.3,6.1-5.4
				c2.3-2.1,4.5-3.8,6.6-5.1c2.2-1.5,5.1-2.7,8.6-3.6c3.5-1,7.4-1.5,11.6-1.5c6.9,0,12.7,1.5,17.3,4.5c4.6,3,7.9,7,9.9,12h0.8
				c1.8-1.6,3.9-3.6,6.5-5.8c2.5-2.2,4.9-4,7-5.3c2.4-1.5,5.4-2.8,9.1-3.8c3.7-1,7.6-1.5,11.8-1.5c9.2,0,16.2,2.7,21.2,8.1
				c4.9,5.4,7.4,13.1,7.4,23v44.2c0,2.2,0.3,4,1,5.4c0.7,1.4,1.9,2.4,3.6,3.1c1,0.4,2.2,0.8,3.6,1.3c0.7,0.2,1.4,0.4,2.2,0.5
				c1.6,0.3,2.7,1.7,2.7,3.4v0.2C2729.9-1314.9,2728.4-1313.3,2726.5-1313.3z"/>
			<path class="st23" d="M2912.4-1313.3h-47.2c-1.9,0-3.4-1.5-3.4-3.4v-0.1c0-1.8,1.3-3.3,3.1-3.4c0.3,0,0.7-0.1,1-0.1
				c1.4-0.1,2.6-0.4,3.6-0.9c1.3-0.6,2.2-1.6,2.5-3c0.4-1.4,0.5-3.3,0.5-5.5v-42.5c0-6.2-1.1-10.9-3.3-14.1
				c-2.2-3.1-5.4-4.7-9.5-4.7c-2.6,0-4.9,0.4-7,1.2c-2,0.8-3.9,1.8-5.6,3c-1.8,1.3-3.1,2.5-4.1,3.8c-0.7,0.9-1.3,1.7-1.8,2.4
				c-0.4,0.6-0.7,1.3-0.7,2.1v47.7c0,2.2,0.3,4,0.8,5.3c0.5,1.4,1.5,2.4,2.8,3.2c1,0.5,2.1,1,3.3,1.5c0.4,0.1,0.8,0.3,1.3,0.4
				c1.5,0.4,2.7,1.8,2.7,3.4v0.4c0,1.9-1.5,3.4-3.4,3.4h-44.8c-1.9,0-3.4-1.5-3.4-3.4v-0.1c0-1.8,1.3-3.2,3.1-3.4
				c0.4,0,0.7-0.1,1.1-0.1c1.6-0.2,2.8-0.5,3.6-0.9c1.3-0.7,2.1-1.6,2.5-2.9c0.4-1.3,0.6-3.2,0.6-5.6v-42.5c0-6.2-1.1-10.9-3.3-14.1
				c-2.2-3.1-5.4-4.7-9.5-4.7c-2.6,0-4.9,0.4-7,1.2c-2,0.8-3.9,1.8-5.6,3c-1.8,1.3-3.1,2.5-4.1,3.8c-0.7,0.9-1.3,1.7-1.8,2.4
				c-0.4,0.6-0.7,1.3-0.7,2.1v47.7c0,2.1,0.3,3.9,0.8,5.3c0.5,1.4,1.5,2.5,2.9,3.3c1,0.5,2.1,1,3.3,1.5c0.4,0.1,0.8,0.3,1.3,0.4
				c1.6,0.4,2.7,1.8,2.7,3.4v0.4c0,1.9-1.5,3.4-3.4,3.4h-47.6c-1.9,0-3.4-1.5-3.4-3.4v-0.1c0-1.8,1.3-3.2,3.1-3.4
				c0.5-0.1,1-0.1,1.6-0.2c1.5-0.2,2.8-0.5,3.9-0.9c1.9-0.7,3.3-1.8,4-3.1c0.7-1.4,1.1-3.2,1.1-5.4v-53c0-1.9-0.5-3.8-1.5-5.7
				c-1-1.9-2.3-3.3-3.7-4.3c-1.1-0.7-2.5-1.3-4.1-1.8c-0.8-0.2-1.7-0.4-2.6-0.6c-1.7-0.3-2.9-1.7-2.9-3.4v-0.4
				c0-1.8,1.4-3.3,3.3-3.4l39.2-2.1c0.6,0,1.3,0.2,1.7,0.7l0,0c0.4,0.4,0.7,1,0.7,1.6v11.9h0.4c1.7-1.5,3.7-3.3,6.1-5.4
				c2.3-2.1,4.5-3.8,6.6-5.1c2.2-1.5,5.1-2.7,8.6-3.6c3.5-1,7.4-1.5,11.6-1.5c6.9,0,12.7,1.5,17.3,4.5c4.6,3,7.9,7,9.9,12h0.8
				c1.8-1.6,3.9-3.6,6.5-5.8c2.5-2.2,4.9-4,7-5.3c2.4-1.5,5.4-2.8,9.1-3.8c3.7-1,7.6-1.5,11.8-1.5c9.2,0,16.2,2.7,21.2,8.1
				c4.9,5.4,7.4,13.1,7.4,23v44.2c0,2.2,0.3,4,1,5.4c0.7,1.4,1.9,2.4,3.6,3.1c1,0.4,2.2,0.8,3.6,1.3c0.7,0.2,1.4,0.4,2.2,0.5
				c1.6,0.3,2.7,1.7,2.7,3.4v0.2C2915.8-1314.9,2914.3-1313.3,2912.4-1313.3z"/>
			<path class="st23" d="M3025.7-1399.7c0,1.6-1.1,2.9-2.6,3.4c-1.8,0.6-3.6,1.4-5.4,2.5c-2.6,1.6-4.7,4.2-6.4,7.6
				c-5.2,11-10.6,22.8-16.1,35.3c-5.5,12.5-11.6,26-18.4,40.4c-3.8,8.1-7.4,14.6-10.9,19.5c-3.5,4.9-6.8,8.6-9.9,11.2
				c-2.9,2.4-5.8,4.2-8.6,5.3c-2.9,1.1-5.7,1.6-8.6,1.6c-5.8,0-10.4-1.6-14-4.8c-3.5-3.2-5.3-6.8-5.3-10.8c0-1.7,0.2-3.3,0.6-4.7
				c0.4-1.5,1.2-3,2.5-4.6c1-1.3,2.5-2.5,4.5-3.4c2-0.9,4.3-1.4,6.9-1.4c3.4,0,6.6,1.2,9.7,3.5c2.3,1.8,4.7,4,7.1,6.8
				c1.4,1.6,3.9,1.6,5.3,0c1.4-1.6,2.9-3.6,4.6-5.9c2.6-3.5,4.6-7.2,6-10.9c0.3-0.9,0.3-1.9-0.1-2.7c-7-14.6-13.1-27.3-18.6-38.1
				c-5.6-11.1-11.8-23.5-18.7-37.2c-1.5-2.9-3.5-5.2-6.1-6.8c-1.7-1.1-3.5-1.9-5.4-2.4c-1.6-0.4-2.7-1.8-2.7-3.4v-0.3
				c0-1.9,1.6-3.5,3.5-3.5h48.7c1.9,0,3.5,1.6,3.5,3.5l0,0c0,1.7-1.2,3.2-2.9,3.5c-1.3,0.2-2.7,0.6-4.2,1.1c-2.7,0.9-4,1.9-4,3.3
				c0,0.5,0.1,1,0.3,1.6c0.2,0.6,0.5,1.4,1,2.5c2.1,4.2,5,10.1,8.8,17.7c2.9,5.8,6.2,12.4,9.9,19.7c1.3,2.7,5.2,2.6,6.4-0.2
				c2.5-5.7,4.7-10.8,6.6-15.3c2.6-6.2,5.2-12.3,7.7-18.3c0.6-1.5,1-2.7,1-3.6c0.1-0.9,0.1-1.5,0.1-1.8c0-1.1-0.5-2-1.6-2.9
				c-1.1-0.8-2.3-1.5-3.8-2.1c-1.5-0.6-3-1.1-4.4-1.4c-0.2-0.1-0.5-0.1-0.7-0.1c-1.6-0.3-2.8-1.8-2.8-3.4v-0.2
				c0-1.9,1.6-3.5,3.5-3.5h30.6c1.9,0,3.5,1.6,3.5,3.5V-1399.7z"/>
		</g>
		<g>
			<path class="st23" d="M2385.1-1312.3c-8.6,0-16.7-1.1-24.1-3.2c-4.8-1.4-10-2.7-13.8-3.7c-4-1.1-10.2-1.4-13.5,0.2
				c-0.1,0.1-0.2,0.1-0.3,0.1l-4.4,1.5c-0.2,0.1-0.3,0.1-0.4,0.1c0,0-0.3,0.1-0.3-0.1c-0.4-3.1-5-37.3-3.5-48.8
				c0-0.1,0.1-0.1,0.2-0.3c0.7-0.6,1.5-0.9,2.4-0.8c4.1,0.4,7.6,3,9.4,6.7c1.3,2.8,2.8,5.6,4.4,8.6c3,5.4,6.4,10.2,10.4,14.5
				c4,4.5,8.6,8.1,13.6,10.9c5,2.8,10.9,4.2,17.6,4.2c9,0,15.9-2.2,20.8-6.6c4.8-4.4,7.2-10,7.2-16.7c0-5.5-2-10.1-6.1-13.9
				c-4.1-3.8-10.4-7-19-9.7c-5.6-1.8-10.7-3.5-15.4-5c-4.7-1.5-9.1-3.1-13.2-4.7c-9.5-3.8-16.5-9.2-21.2-16.2
				c-4.6-7-6.9-14.9-6.9-23.6c0-5.5,1.2-10.8,3.6-15.9c2.4-5.1,5.9-9.7,10.5-13.7c4.4-3.8,10-6.9,16.8-9.3
				c6.8-2.4,14.3-3.6,22.3-3.6c7.8,0,15.2,1.1,22,3.3c4.1,1.3,7.6,2.6,10.6,3.9c3.5,1.5,17.3,10.4,17.4,15.2l1.1,21.3
				c0.1,4.7-10.3-2.1-13-7.5c-2.7-5.4-5.5-9.9-8.5-13.5c-3.3-3.9-7-6.9-11.3-9.2c-4.2-2.3-9.2-3.4-14.9-3.4c-7.2,0-13,2-17.6,6.1
				c-4.5,4.1-6.8,9.1-6.8,15.1c0,5.7,2,10.3,5.9,13.9c3.9,3.6,10.1,6.7,18.5,9.5c4.9,1.7,9.9,3.3,15,5c5.1,1.7,9.7,3.3,13.6,4.8
				c9.6,3.7,16.9,8.9,22,15.4c5,6.5,7.5,14.7,7.5,24.4c0,6.1-1.4,12-4.3,17.7c-2.9,5.7-6.7,10.5-11.5,14.3
				c-5.3,4.2-11.4,7.4-18.4,9.7C2402.5-1313.5,2394.4-1312.3,2385.1-1312.3z"/>
		</g>
	</g>
</g>
<g>
	<g>
		<g>
			
				<radialGradient id="SVGID_20_" cx="95.7143" cy="-4923.4077" r="231.3187" fx="94.2691" fy="-4935.3374" gradientTransform="matrix(-0.9185 0.3954 -0.3954 -0.9185 -12.22 -5283.6113)" gradientUnits="userSpaceOnUse">
				<stop  offset="0" style="stop-color:#ED4617"/>
				<stop  offset="1" style="stop-color:#F16F22"/>
			</radialGradient>
			<path class="st24" d="M1629.5-647.7c-33.6-64.4-63.5-177.3-16.6-218.9c19.7-17.5,35.7-7.1,201.8,4.2
				c79.8,5.4,98.4,4.5,132.2,17.8c17.9,7,72.7,29.3,114,86.4c14.3,19.7,65.2,90,45,160.3c-25,87-144.7,124.1-228.1,121.4
				C1719.3-481.9,1636.9-633.6,1629.5-647.7z"/>
		</g>
		<g>
			
				<radialGradient id="SVGID_21_" cx="-2064.958" cy="-3169.0906" r="241.6458" fx="-2066.4675" fy="-3181.553" gradientTransform="matrix(-0.7715 -0.6362 0.6362 -0.7715 2337.1819 -4522.8569)" gradientUnits="userSpaceOnUse">
				<stop  offset="0" style="stop-color:#F1DD26"/>
				<stop  offset="1" style="stop-color:#F4BD1E"/>
			</radialGradient>
			<path class="st25" d="M1723.5-967.8c10-15.8,44.3-70,99.5-76.9c55.4-6.9,99,38.6,186.2,129.7c72.6,75.8,110,116,122.8,183.3
				c4.3,22.5,13.9,73-11,126c-32.7,69.6-112.1,116.4-188.7,109.4c-76.3-6.9-122-64.6-153.5-104.6
				C1703.2-696.3,1653.4-857.1,1723.5-967.8z"/>
		</g>
		<g>
			
				<radialGradient id="SVGID_22_" cx="2066.0413" cy="-874.1975" r="243.6069" fx="2065.2842" fy="-889.1708" gradientTransform="matrix(0.9973 7.333645e-02 -7.333645e-02 0.9973 -194.0479 -39.4459)" gradientUnits="userSpaceOnUse">
				<stop  offset="0" style="stop-color:#30A9DC"/>
				<stop  offset="1" style="stop-color:#0C73B8"/>
			</radialGradient>
			<path class="st26" d="M2116.9-989.7c91.4,50.5,84.3,411.3-87,471c-93.1,32.4-207.1-33.7-267-104c-10.4-12.2-99.5-116.8-64.4-198
				c16-37,46.7-43.4,227.8-111.6C2083.2-991.4,2097.2-1000.6,2116.9-989.7z"/>
		</g>
	</g>
	<g>
		<linearGradient id="SVGID_23_" gradientUnits="userSpaceOnUse" x1="1791.6714" y1="-719.247" x2="2005.2679" y2="-719.247">
			<stop  offset="0" style="stop-color:#7118B7;stop-opacity:0.9"/>
			<stop  offset="1" style="stop-color:#7118B7;stop-opacity:0.6"/>
		</linearGradient>
		<path class="st27" d="M1900.2-585.8c-15.5,0-29.9-1.9-43.2-5.8c-8.6-2.5-17.8-4.8-24.7-6.7c-7.2-2-18.2-2.4-24.1,0.3
			c-0.2,0.1-0.4,0.2-0.6,0.2l-7.8,2.6c-0.4,0.2-0.5,0.2-0.7,0.3c0,0-0.6,0.2-0.6-0.1c-0.8-5.6-9-66.8-6.2-87.3
			c0-0.1,0.2-0.3,0.4-0.5c1.2-1,2.8-1.5,4.3-1.4c7.3,0.8,13.7,5.3,16.8,12c2.4,5,5,10.1,7.9,15.4c5.4,9.7,11.5,18.3,18.5,25.9
			c7.3,8,15.4,14.5,24.3,19.5c9,5,19.5,7.5,31.5,7.5c16.2,0,28.6-4,37.2-11.9c8.6-7.9,12.9-17.9,12.9-29.9c0-9.9-3.7-18.2-11-24.9
			c-7.3-6.7-18.6-12.5-34-17.4c-10-3.2-19.2-6.2-27.6-9c-8.4-2.7-16.3-5.6-23.6-8.4c-17-6.8-29.6-16.5-37.9-29.1
			c-8.3-12.6-12.4-26.7-12.4-42.3c0-9.9,2.1-19.4,6.4-28.5c4.3-9.1,10.5-17.3,18.7-24.6c7.8-6.8,17.9-12.3,30.1-16.6
			c12.2-4.3,25.6-6.4,39.9-6.4c14,0,27.2,2,39.4,5.9c7.3,2.3,13.6,4.7,19,7c6.2,2.7,31,18.6,31.1,27.2l2,38.1
			c0.1,8.4-18.5-3.7-23.3-13.4c-4.8-9.7-9.9-17.8-15.2-24.2c-5.8-6.9-12.5-12.4-20.2-16.5c-7.6-4.1-16.5-6.2-26.8-6.2
			c-12.8,0-23.3,3.6-31.5,10.9c-8.1,7.3-12.2,16.3-12.2,27c0,10.1,3.5,18.4,10.6,24.8c7.1,6.4,18.1,12.1,33.1,17
			c8.8,3,17.8,6,26.9,8.9c9.2,3,17.3,5.8,24.4,8.6c17.2,6.7,30.3,15.9,39.3,27.6c9,11.7,13.5,26.3,13.5,43.7c0,11-2.6,21.6-7.7,31.8
			c-5.1,10.2-12,18.8-20.7,25.5c-9.5,7.5-20.5,13.3-33,17.3C1931.4-587.8,1916.9-585.8,1900.2-585.8z"/>
	</g>
</g>
<g>
	<line class="st28" x1="2252" y1="-839.7" x2="2252" y2="-520.7"/>
	<g>
		<g>
			<path class="st23" d="M2548.5-649.3c1,0.7,1.2,2.1,0.5,3.1c-1.9,2.8-4,5.4-6.5,7.9c-3,3.1-6.4,5.7-10.2,7.9
				c-4.1,2.3-8.2,4-12.3,5.2c-4.2,1.2-8.9,1.8-14.3,1.8c-9,0-16.7-1.3-23.3-3.8c-6.5-2.5-11.9-6-16.2-10.3
				c-4.2-4.3-7.4-9.4-9.5-15.2c-2.1-5.9-3.1-12.2-3.1-19.1c0-6.2,1.1-12.1,3.4-17.8c2.3-5.7,5.5-10.7,9.7-15.2
				c4.1-4.3,9.3-7.8,15.6-10.5c6.3-2.7,13.3-4,21.1-4c8.5,0,15.5,1,20.9,3.1c5.5,2.1,10,4.9,13.6,8.6c3.5,3.5,6,7.5,7.6,12.2
				c1.6,4.7,2.4,9.6,2.4,14.8v3.7c0,1.2-1,2.2-2.2,2.2h-57c-1.2,0-2.3,1-2.2,2.3c0.3,11.3,2.7,20,7.2,26.1
				c4.8,6.5,12.4,9.7,22.8,9.7c5.7,0,10.8-1.6,15.4-4.7c4-2.7,7.4-6.1,10.4-10.1c0.7-1,2.1-1.2,3.1-0.4L2548.5-649.3z M2513.2-682.7
				c1.2,0,2.2-1,2.2-2.3c-0.1-2.9-0.2-5.9-0.5-9c-0.4-3.8-1-6.9-1.9-9.4c-1-2.9-2.4-5-4.2-6.5c-1.8-1.5-4-2.2-6.8-2.2
				c-4.7,0-8.4,2.4-11.2,7.1c-2.6,4.4-4.1,11.1-4.5,20.1c-0.1,1.3,1,2.4,2.3,2.4L2513.2-682.7z"/>
			<path class="st23" d="M2730.8-626.4h-47.2c-1.9,0-3.4-1.5-3.4-3.4v-0.1c0-1.8,1.3-3.3,3.1-3.4c0.3,0,0.7-0.1,1-0.1
				c1.4-0.1,2.6-0.4,3.6-0.9c1.3-0.6,2.2-1.6,2.5-3c0.4-1.4,0.5-3.3,0.5-5.5v-42.5c0-6.2-1.1-10.9-3.3-14.1
				c-2.2-3.1-5.4-4.7-9.5-4.7c-2.6,0-4.9,0.4-7,1.2c-2,0.8-3.9,1.8-5.6,3c-1.8,1.3-3.1,2.5-4.1,3.8c-0.7,0.9-1.3,1.7-1.8,2.4
				c-0.4,0.6-0.7,1.3-0.7,2.1v47.7c0,2.2,0.3,4,0.8,5.3c0.5,1.4,1.5,2.4,2.8,3.2c1,0.5,2.1,1,3.3,1.5c0.4,0.1,0.8,0.3,1.3,0.4
				c1.5,0.4,2.7,1.8,2.7,3.4v0.4c0,1.9-1.5,3.4-3.4,3.4h-44.8c-1.9,0-3.4-1.5-3.4-3.4v-0.1c0-1.8,1.3-3.2,3.1-3.4
				c0.4,0,0.7-0.1,1.1-0.1c1.6-0.2,2.8-0.5,3.6-0.9c1.3-0.7,2.1-1.6,2.5-2.9c0.4-1.3,0.6-3.2,0.6-5.6v-42.5c0-6.2-1.1-10.9-3.3-14.1
				c-2.2-3.1-5.4-4.7-9.5-4.7c-2.6,0-4.9,0.4-7,1.2c-2,0.8-3.9,1.8-5.6,3c-1.8,1.3-3.1,2.5-4.1,3.8c-0.7,0.9-1.3,1.7-1.8,2.4
				c-0.4,0.6-0.7,1.3-0.7,2.1v47.7c0,2.1,0.3,3.9,0.8,5.3c0.5,1.4,1.5,2.5,2.9,3.3c1,0.5,2.1,1,3.3,1.5c0.4,0.1,0.8,0.3,1.3,0.4
				c1.6,0.4,2.7,1.8,2.7,3.4v0.4c0,1.9-1.5,3.4-3.4,3.4h-47.6c-1.9,0-3.4-1.5-3.4-3.4v-0.1c0-1.8,1.3-3.2,3.1-3.4
				c0.5-0.1,1-0.1,1.6-0.2c1.5-0.2,2.8-0.5,3.9-0.9c1.9-0.7,3.3-1.8,4-3.1c0.7-1.4,1.1-3.2,1.1-5.4v-53c0-1.9-0.5-3.8-1.5-5.7
				c-1-1.9-2.3-3.3-3.7-4.3c-1.1-0.7-2.5-1.3-4.1-1.8c-0.8-0.2-1.7-0.4-2.6-0.6c-1.7-0.3-2.9-1.7-2.9-3.4v-0.4
				c0-1.8,1.4-3.3,3.3-3.4l39.2-2.1c0.6,0,1.3,0.2,1.7,0.7l0,0c0.4,0.4,0.7,1,0.7,1.6v11.9h0.4c1.7-1.5,3.7-3.3,6.1-5.4
				c2.3-2.1,4.5-3.8,6.6-5.1c2.2-1.5,5.1-2.7,8.6-3.6c3.5-1,7.4-1.5,11.6-1.5c6.9,0,12.7,1.5,17.3,4.5c4.6,3,7.9,7,9.9,12h0.8
				c1.8-1.6,3.9-3.6,6.5-5.8c2.5-2.2,4.9-4,7-5.3c2.4-1.5,5.4-2.8,9.1-3.8c3.7-1,7.6-1.5,11.8-1.5c9.2,0,16.2,2.7,21.2,8.1
				c4.9,5.4,7.4,13.1,7.4,23v44.2c0,2.2,0.3,4,1,5.4c0.7,1.4,1.9,2.4,3.6,3.1c1,0.4,2.2,0.8,3.6,1.3c0.7,0.2,1.4,0.4,2.2,0.5
				c1.6,0.3,2.7,1.7,2.7,3.4v0.2C2734.3-627.9,2732.7-626.4,2730.8-626.4z"/>
			<path class="st23" d="M2916.7-626.4h-47.2c-1.9,0-3.4-1.5-3.4-3.4v-0.1c0-1.8,1.3-3.3,3.1-3.4c0.3,0,0.7-0.1,1-0.1
				c1.4-0.1,2.6-0.4,3.6-0.9c1.3-0.6,2.2-1.6,2.5-3c0.4-1.4,0.5-3.3,0.5-5.5v-42.5c0-6.2-1.1-10.9-3.3-14.1
				c-2.2-3.1-5.4-4.7-9.5-4.7c-2.6,0-4.9,0.4-7,1.2c-2,0.8-3.9,1.8-5.6,3c-1.8,1.3-3.1,2.5-4.1,3.8c-0.7,0.9-1.3,1.7-1.8,2.4
				c-0.4,0.6-0.7,1.3-0.7,2.1v47.7c0,2.2,0.3,4,0.8,5.3c0.5,1.4,1.5,2.4,2.8,3.2c1,0.5,2.1,1,3.3,1.5c0.4,0.1,0.8,0.3,1.3,0.4
				c1.5,0.4,2.7,1.8,2.7,3.4v0.4c0,1.9-1.5,3.4-3.4,3.4h-44.8c-1.9,0-3.4-1.5-3.4-3.4v-0.1c0-1.8,1.3-3.2,3.1-3.4
				c0.4,0,0.7-0.1,1.1-0.1c1.6-0.2,2.8-0.5,3.6-0.9c1.3-0.7,2.1-1.6,2.5-2.9c0.4-1.3,0.6-3.2,0.6-5.6v-42.5c0-6.2-1.1-10.9-3.3-14.1
				c-2.2-3.1-5.4-4.7-9.5-4.7c-2.6,0-4.9,0.4-7,1.2c-2,0.8-3.9,1.8-5.6,3c-1.8,1.3-3.1,2.5-4.1,3.8c-0.7,0.9-1.3,1.7-1.8,2.4
				c-0.4,0.6-0.7,1.3-0.7,2.1v47.7c0,2.1,0.3,3.9,0.8,5.3c0.5,1.4,1.5,2.5,2.9,3.3c1,0.5,2.1,1,3.3,1.5c0.4,0.1,0.8,0.3,1.3,0.4
				c1.6,0.4,2.7,1.8,2.7,3.4v0.4c0,1.9-1.5,3.4-3.4,3.4h-47.6c-1.9,0-3.4-1.5-3.4-3.4v-0.1c0-1.8,1.3-3.2,3.1-3.4
				c0.5-0.1,1-0.1,1.6-0.2c1.5-0.2,2.8-0.5,3.9-0.9c1.9-0.7,3.3-1.8,4-3.1c0.7-1.4,1.1-3.2,1.1-5.4v-53c0-1.9-0.5-3.8-1.5-5.7
				c-1-1.9-2.3-3.3-3.7-4.3c-1.1-0.7-2.5-1.3-4.1-1.8c-0.8-0.2-1.7-0.4-2.6-0.6c-1.7-0.3-2.9-1.7-2.9-3.4v-0.4
				c0-1.8,1.4-3.3,3.3-3.4l39.2-2.1c0.6,0,1.3,0.2,1.7,0.7l0,0c0.4,0.4,0.7,1,0.7,1.6v11.9h0.4c1.7-1.5,3.7-3.3,6.1-5.4
				c2.3-2.1,4.5-3.8,6.6-5.1c2.2-1.5,5.1-2.7,8.6-3.6c3.5-1,7.4-1.5,11.6-1.5c6.9,0,12.7,1.5,17.3,4.5c4.6,3,7.9,7,9.9,12h0.8
				c1.8-1.6,3.9-3.6,6.5-5.8c2.5-2.2,4.9-4,7-5.3c2.4-1.5,5.4-2.8,9.1-3.8c3.7-1,7.6-1.5,11.8-1.5c9.2,0,16.2,2.7,21.2,8.1
				c4.9,5.4,7.4,13.1,7.4,23v44.2c0,2.2,0.3,4,1,5.4c0.7,1.4,1.9,2.4,3.6,3.1c1,0.4,2.2,0.8,3.6,1.3c0.7,0.2,1.4,0.4,2.2,0.5
				c1.6,0.3,2.7,1.7,2.7,3.4v0.2C2920.2-627.9,2918.6-626.4,2916.7-626.4z"/>
			<path class="st23" d="M3030.1-712.8c0,1.6-1.1,2.9-2.6,3.4c-1.8,0.6-3.6,1.4-5.4,2.5c-2.6,1.6-4.7,4.2-6.4,7.6
				c-5.2,11-10.6,22.8-16.1,35.3c-5.5,12.5-11.6,26-18.4,40.4c-3.8,8.1-7.4,14.6-10.9,19.5c-3.5,4.9-6.8,8.6-9.9,11.2
				c-2.9,2.4-5.8,4.2-8.6,5.3c-2.9,1.1-5.7,1.6-8.6,1.6c-5.8,0-10.4-1.6-14-4.8c-3.5-3.2-5.3-6.8-5.3-10.8c0-1.7,0.2-3.3,0.6-4.7
				c0.4-1.5,1.2-3,2.5-4.6c1-1.3,2.5-2.5,4.5-3.4c2-0.9,4.3-1.4,6.9-1.4c3.4,0,6.6,1.2,9.7,3.5c2.3,1.8,4.7,4,7.1,6.8
				c1.4,1.6,3.9,1.6,5.3,0c1.4-1.6,2.9-3.6,4.6-5.9c2.6-3.5,4.6-7.2,6-10.9c0.3-0.9,0.3-1.9-0.1-2.7c-7-14.6-13.1-27.3-18.6-38.1
				c-5.6-11.1-11.8-23.5-18.7-37.2c-1.5-2.9-3.5-5.2-6.1-6.8c-1.7-1.1-3.5-1.9-5.4-2.4c-1.6-0.4-2.7-1.8-2.7-3.4v-0.3
				c0-1.9,1.6-3.5,3.5-3.5h48.7c1.9,0,3.5,1.6,3.5,3.5l0,0c0,1.7-1.2,3.2-2.9,3.5c-1.3,0.2-2.7,0.6-4.2,1.1c-2.7,0.9-4,1.9-4,3.3
				c0,0.5,0.1,1,0.3,1.6c0.2,0.6,0.5,1.4,1,2.5c2.1,4.2,5,10.1,8.8,17.7c2.9,5.8,6.2,12.4,9.9,19.7c1.3,2.7,5.2,2.6,6.4-0.2
				c2.5-5.7,4.7-10.8,6.6-15.3c2.6-6.2,5.2-12.3,7.7-18.3c0.6-1.5,1-2.7,1-3.6c0.1-0.9,0.1-1.5,0.1-1.8c0-1.1-0.5-2-1.6-2.9
				c-1.1-0.8-2.3-1.5-3.8-2.1c-1.5-0.6-3-1.1-4.4-1.4c-0.2-0.1-0.5-0.1-0.7-0.1c-1.6-0.3-2.8-1.8-2.8-3.4v-0.2
				c0-1.9,1.6-3.5,3.5-3.5h30.6c1.9,0,3.5,1.6,3.5,3.5V-712.8z"/>
		</g>
		<g>
			<path class="st23" d="M2389.4-625.4c-8.6,0-16.7-1.1-24.1-3.2c-4.8-1.4-10-2.7-13.8-3.7c-4-1.1-10.2-1.4-13.5,0.2
				c-0.1,0.1-0.2,0.1-0.3,0.1l-4.4,1.5c-0.2,0.1-0.3,0.1-0.4,0.1c0,0-0.3,0.1-0.3-0.1c-0.4-3.1-5-37.3-3.5-48.8
				c0-0.1,0.1-0.1,0.2-0.3c0.7-0.6,1.5-0.9,2.4-0.8c4.1,0.4,7.6,3,9.4,6.7c1.3,2.8,2.8,5.6,4.4,8.6c3,5.4,6.4,10.2,10.4,14.5
				c4,4.5,8.6,8.1,13.6,10.9c5,2.8,10.9,4.2,17.6,4.2c9,0,15.9-2.2,20.8-6.6c4.8-4.4,7.2-10,7.2-16.7c0-5.5-2-10.1-6.1-13.9
				c-4.1-3.8-10.4-7-19-9.7c-5.6-1.8-10.7-3.5-15.4-5c-4.7-1.5-9.1-3.1-13.2-4.7c-9.5-3.8-16.5-9.2-21.2-16.2
				c-4.6-7-6.9-14.9-6.9-23.6c0-5.5,1.2-10.8,3.6-15.9c2.4-5.1,5.9-9.7,10.5-13.7c4.4-3.8,10-6.9,16.8-9.3
				c6.8-2.4,14.3-3.6,22.3-3.6c7.8,0,15.2,1.1,22,3.3c4.1,1.3,7.6,2.6,10.6,3.9c3.5,1.5,17.3,10.4,17.4,15.2l1.1,21.3
				c0.1,4.7-10.3-2.1-13-7.5c-2.7-5.4-5.5-9.9-8.5-13.5c-3.3-3.9-7-6.9-11.3-9.2c-4.2-2.3-9.2-3.4-14.9-3.4c-7.2,0-13,2-17.6,6.1
				c-4.5,4.1-6.8,9.1-6.8,15.1c0,5.7,2,10.3,5.9,13.9c3.9,3.6,10.1,6.7,18.5,9.5c4.9,1.7,9.9,3.3,15,5c5.1,1.7,9.7,3.3,13.6,4.8
				c9.6,3.7,16.9,8.9,22,15.4c5,6.5,7.5,14.7,7.5,24.4c0,6.1-1.4,12-4.3,17.7c-2.9,5.7-6.7,10.5-11.5,14.3
				c-5.3,4.2-11.4,7.4-18.4,9.7C2406.8-626.5,2398.7-625.4,2389.4-625.4z"/>
		</g>
	</g>
</g>
<g>
	<g>
		<g>
			<g>
				
					<radialGradient id="SVGID_24_" cx="1030.1694" cy="-3241.4568" r="231.3187" fx="1028.7244" fy="-3253.3865" gradientTransform="matrix(-0.9185 0.3954 -0.3954 -0.9185 -12.22 -5283.6113)" gradientUnits="userSpaceOnUse">
					<stop  offset="0" style="stop-color:#ED4617"/>
					<stop  offset="1" style="stop-color:#F16F22"/>
				</radialGradient>
				<path class="st29" d="M106.2-1823.2c-33.6-64.4-63.5-177.3-16.6-218.9c19.7-17.5,35.7-7.1,201.8,4.2
					c79.8,5.4,98.4,4.5,132.2,17.8c17.9,7,72.7,29.3,114,86.4c14.3,19.7,65.2,90,45,160.3c-25,87-144.7,124.1-228.1,121.4
					C196-1657.3,113.6-1809.1,106.2-1823.2z"/>
			</g>
			<g>
				
					<radialGradient id="SVGID_25_" cx="-141.8632" cy="-3231.3159" r="241.6458" fx="-143.3728" fy="-3243.7783" gradientTransform="matrix(-0.7715 -0.6362 0.6362 -0.7715 2337.1819 -4522.8569)" gradientUnits="userSpaceOnUse">
					<stop  offset="0" style="stop-color:#F1DD26"/>
					<stop  offset="1" style="stop-color:#F4BD1E"/>
				</radialGradient>
				<path class="st30" d="M200.2-2143.2c10-15.8,44.3-70,99.5-76.9c55.4-6.9,99,38.6,186.2,129.7c72.6,75.8,110,116,122.8,183.3
					c4.3,22.5,13.9,73-11,126c-32.7,69.6-112.1,116.4-188.7,109.4c-76.3-6.9-122-64.6-153.5-104.6
					C179.9-1871.7,130.1-2032.6,200.2-2143.2z"/>
			</g>
			<g>
				
					<radialGradient id="SVGID_26_" cx="460.6221" cy="-1934.7611" r="243.6069" fx="459.865" fy="-1949.7344" gradientTransform="matrix(0.9973 7.333645e-02 -7.333645e-02 0.9973 -194.0479 -39.4459)" gradientUnits="userSpaceOnUse">
					<stop  offset="0" style="stop-color:#30A9DC"/>
					<stop  offset="1" style="stop-color:#0C73B8"/>
				</radialGradient>
				<path class="st31" d="M593.6-2165.1c91.4,50.5,84.3,411.3-87,471c-93.1,32.4-207.1-33.7-267-104c-10.4-12.2-99.5-116.8-64.4-198
					c16-37,46.7-43.4,227.8-111.6C559.9-2166.8,573.9-2176,593.6-2165.1z"/>
			</g>
		</g>
		<g>
			<g>
				<path class="st32" d="M376.9-1761.2c-15.5,0-29.9-1.9-43.2-5.8c-8.6-2.5-17.8-4.8-24.7-6.7c-7.2-2-18.2-2.4-24.1,0.3
					c-0.2,0.1-0.4,0.2-0.6,0.2l-7.8,2.6c-0.4,0.2-0.5,0.2-0.7,0.3c0,0-0.6,0.2-0.6-0.1c-0.8-5.6-9-66.8-6.2-87.3
					c0-0.1,0.2-0.3,0.4-0.5c1.2-1,2.8-1.5,4.3-1.4c7.3,0.8,13.7,5.3,16.8,12c2.4,5,5,10.1,7.9,15.4c5.4,9.7,11.5,18.3,18.5,25.9
					c7.3,8,15.4,14.5,24.3,19.5c9,5,19.5,7.5,31.5,7.5c16.2,0,28.6-4,37.2-11.9c8.6-7.9,12.9-17.9,12.9-29.9c0-9.9-3.7-18.2-11-24.9
					c-7.3-6.7-18.6-12.5-34-17.4c-10-3.2-19.2-6.2-27.6-9c-8.4-2.7-16.3-5.6-23.6-8.4c-17-6.8-29.6-16.5-37.9-29.1
					c-8.3-12.6-12.4-26.7-12.4-42.3c0-9.9,2.1-19.4,6.4-28.5c4.3-9.1,10.5-17.3,18.7-24.6c7.8-6.8,17.9-12.3,30.1-16.6
					c12.2-4.3,25.6-6.4,39.9-6.4c14,0,27.2,2,39.4,5.9c7.3,2.3,13.6,4.7,19,7c6.2,2.7,31,18.6,31.1,27.2l2,38.1
					c0.1,8.4-18.5-3.7-23.3-13.4c-4.8-9.7-9.9-17.8-15.2-24.2c-5.8-6.9-12.5-12.4-20.2-16.5c-7.6-4.1-16.5-6.2-26.8-6.2
					c-12.8,0-23.3,3.6-31.5,10.9c-8.1,7.3-12.2,16.3-12.2,27c0,10.1,3.5,18.4,10.6,24.8c7.1,6.4,18.1,12.1,33.1,17
					c8.8,3,17.8,6,26.9,8.9c9.2,3,17.3,5.8,24.4,8.6c17.2,6.7,30.3,15.9,39.3,27.6c9,11.7,13.5,26.3,13.5,43.7
					c0,11-2.6,21.6-7.7,31.8c-5.1,10.2-12,18.8-20.7,25.5c-9.5,7.5-20.5,13.3-33,17.3C408.1-1763.2,393.6-1761.2,376.9-1761.2z"/>
			</g>
		</g>
	</g>
	<g>
		<g>
			<line class="st28" x1="728.7" y1="-2015.1" x2="728.7" y2="-1696.1"/>
			<g>
				<g>
					<path class="st23" d="M1025.1-1824.8c1,0.7,1.2,2.1,0.5,3.1c-1.9,2.8-4,5.4-6.5,7.9c-3,3.1-6.4,5.7-10.2,7.9
						c-4.1,2.3-8.2,4-12.3,5.2c-4.2,1.2-8.9,1.8-14.3,1.8c-9,0-16.7-1.3-23.3-3.8c-6.5-2.5-11.9-6-16.2-10.3
						c-4.2-4.3-7.4-9.4-9.5-15.2c-2.1-5.9-3.1-12.2-3.1-19.1c0-6.2,1.1-12.1,3.4-17.8c2.3-5.7,5.5-10.7,9.7-15.2
						c4.1-4.3,9.3-7.8,15.6-10.5c6.3-2.7,13.3-4,21.1-4c8.5,0,15.5,1,20.9,3.1c5.5,2.1,10,4.9,13.6,8.6c3.5,3.5,6,7.5,7.6,12.2
						c1.6,4.7,2.4,9.6,2.4,14.8v3.7c0,1.2-1,2.2-2.2,2.2h-57c-1.2,0-2.3,1-2.2,2.3c0.3,11.3,2.7,20,7.2,26.1
						c4.8,6.5,12.4,9.7,22.8,9.7c5.7,0,10.8-1.6,15.4-4.7c4-2.7,7.4-6.1,10.4-10.1c0.7-1,2.1-1.2,3.1-0.4L1025.1-1824.8z
						 M989.9-1858.1c1.2,0,2.2-1,2.2-2.3c-0.1-2.9-0.2-5.9-0.5-9c-0.4-3.8-1-6.9-1.9-9.4c-1-2.9-2.4-5-4.2-6.5
						c-1.8-1.5-4-2.2-6.8-2.2c-4.7,0-8.4,2.4-11.2,7.1c-2.6,4.4-4.1,11.1-4.5,20.1c-0.1,1.3,1,2.4,2.3,2.4L989.9-1858.1z"/>
					<path class="st23" d="M1207.5-1801.8h-47.2c-1.9,0-3.4-1.5-3.4-3.4v-0.1c0-1.8,1.3-3.3,3.1-3.4c0.3,0,0.7-0.1,1-0.1
						c1.4-0.1,2.6-0.4,3.6-0.9c1.3-0.6,2.2-1.6,2.5-3c0.4-1.4,0.5-3.3,0.5-5.5v-42.5c0-6.2-1.1-10.9-3.3-14.1
						c-2.2-3.1-5.4-4.7-9.5-4.7c-2.6,0-4.9,0.4-7,1.2c-2,0.8-3.9,1.8-5.6,3c-1.8,1.3-3.1,2.5-4.1,3.8c-0.7,0.9-1.3,1.7-1.8,2.4
						c-0.4,0.6-0.7,1.3-0.7,2.1v47.7c0,2.2,0.3,4,0.8,5.3c0.5,1.4,1.5,2.4,2.8,3.2c1,0.5,2.1,1,3.3,1.5c0.4,0.1,0.8,0.3,1.3,0.4
						c1.5,0.4,2.7,1.8,2.7,3.4v0.4c0,1.9-1.5,3.4-3.4,3.4h-44.8c-1.9,0-3.4-1.5-3.4-3.4v-0.1c0-1.8,1.3-3.2,3.1-3.4
						c0.4,0,0.7-0.1,1.1-0.1c1.6-0.2,2.8-0.5,3.6-0.9c1.3-0.7,2.1-1.6,2.5-2.9c0.4-1.3,0.6-3.2,0.6-5.6v-42.5
						c0-6.2-1.1-10.9-3.3-14.1c-2.2-3.1-5.4-4.7-9.5-4.7c-2.6,0-4.9,0.4-7,1.2c-2,0.8-3.9,1.8-5.6,3c-1.8,1.3-3.1,2.5-4.1,3.8
						c-0.7,0.9-1.3,1.7-1.8,2.4c-0.4,0.6-0.7,1.3-0.7,2.1v47.7c0,2.1,0.3,3.9,0.8,5.3c0.5,1.4,1.5,2.5,2.9,3.3c1,0.5,2.1,1,3.3,1.5
						c0.4,0.1,0.8,0.3,1.3,0.4c1.6,0.4,2.7,1.8,2.7,3.4v0.4c0,1.9-1.5,3.4-3.4,3.4h-47.6c-1.9,0-3.4-1.5-3.4-3.4v-0.1
						c0-1.8,1.3-3.2,3.1-3.4c0.5-0.1,1-0.1,1.6-0.2c1.5-0.2,2.8-0.5,3.9-0.9c1.9-0.7,3.3-1.8,4-3.1c0.7-1.4,1.1-3.2,1.1-5.4v-53
						c0-1.9-0.5-3.8-1.5-5.7c-1-1.9-2.3-3.3-3.7-4.3c-1.1-0.7-2.5-1.3-4.1-1.8c-0.8-0.2-1.7-0.4-2.6-0.6c-1.7-0.3-2.9-1.7-2.9-3.4
						v-0.4c0-1.8,1.4-3.3,3.3-3.4l39.2-2.1c0.6,0,1.3,0.2,1.7,0.7l0,0c0.4,0.4,0.7,1,0.7,1.6v11.9h0.4c1.7-1.5,3.7-3.3,6.1-5.4
						c2.3-2.1,4.5-3.8,6.6-5.1c2.2-1.5,5.1-2.7,8.6-3.6c3.5-1,7.4-1.5,11.6-1.5c6.9,0,12.7,1.5,17.3,4.5c4.6,3,7.9,7,9.9,12h0.8
						c1.8-1.6,3.9-3.6,6.5-5.8c2.5-2.2,4.9-4,7-5.3c2.4-1.5,5.4-2.8,9.1-3.8c3.7-1,7.6-1.5,11.8-1.5c9.2,0,16.2,2.7,21.2,8.1
						c4.9,5.4,7.4,13.1,7.4,23v44.2c0,2.2,0.3,4,1,5.4c0.7,1.4,1.9,2.4,3.6,3.1c1,0.4,2.2,0.8,3.6,1.3c0.7,0.2,1.4,0.4,2.2,0.5
						c1.6,0.3,2.7,1.7,2.7,3.4v0.2C1210.9-1803.3,1209.4-1801.8,1207.5-1801.8z"/>
					<path class="st23" d="M1393.4-1801.8h-47.2c-1.9,0-3.4-1.5-3.4-3.4v-0.1c0-1.8,1.3-3.3,3.1-3.4c0.3,0,0.7-0.1,1-0.1
						c1.4-0.1,2.6-0.4,3.6-0.9c1.3-0.6,2.2-1.6,2.5-3c0.4-1.4,0.5-3.3,0.5-5.5v-42.5c0-6.2-1.1-10.9-3.3-14.1
						c-2.2-3.1-5.4-4.7-9.5-4.7c-2.6,0-4.9,0.4-7,1.2c-2,0.8-3.9,1.8-5.6,3c-1.8,1.3-3.1,2.5-4.1,3.8c-0.7,0.9-1.3,1.7-1.8,2.4
						c-0.4,0.6-0.7,1.3-0.7,2.1l0,47.7c0,2.2,0.3,4,0.8,5.3c0.5,1.4,1.5,2.4,2.8,3.2c1,0.5,2.1,1,3.3,1.5c0.4,0.1,0.8,0.3,1.3,0.4
						c1.5,0.4,2.7,1.8,2.7,3.4v0.4c0,1.9-1.5,3.4-3.4,3.4h-44.8c-1.9,0-3.4-1.5-3.4-3.4v-0.1c0-1.8,1.3-3.2,3.1-3.4
						c0.4,0,0.7-0.1,1.1-0.1c1.6-0.2,2.8-0.5,3.6-0.9c1.3-0.7,2.1-1.6,2.5-2.9c0.4-1.3,0.6-3.2,0.6-5.6v-42.5
						c0-6.2-1.1-10.9-3.3-14.1c-2.2-3.1-5.4-4.7-9.5-4.7c-2.6,0-4.9,0.4-7,1.2c-2,0.8-3.9,1.8-5.6,3c-1.8,1.3-3.1,2.5-4.1,3.8
						c-0.7,0.9-1.3,1.7-1.8,2.4c-0.4,0.6-0.7,1.3-0.7,2.1l0,47.7c0,2.1,0.3,3.9,0.8,5.3c0.5,1.4,1.5,2.5,2.9,3.3
						c1,0.5,2.1,1,3.3,1.5c0.4,0.1,0.8,0.3,1.3,0.4c1.6,0.4,2.7,1.8,2.7,3.4v0.4c0,1.9-1.5,3.4-3.4,3.4h-47.6
						c-1.9,0-3.4-1.5-3.4-3.4v-0.1c0-1.8,1.3-3.2,3.1-3.4c0.5-0.1,1-0.1,1.6-0.2c1.5-0.2,2.8-0.5,3.9-0.9c1.9-0.7,3.3-1.8,4-3.1
						c0.7-1.4,1.1-3.2,1.1-5.4v-53c0-1.9-0.5-3.8-1.5-5.7c-1-1.9-2.3-3.3-3.7-4.3c-1.1-0.7-2.5-1.3-4.1-1.8
						c-0.8-0.2-1.7-0.4-2.6-0.6c-1.7-0.3-2.9-1.7-2.9-3.4v-0.4c0-1.8,1.4-3.3,3.3-3.4l39.2-2.1c0.6,0,1.3,0.2,1.7,0.7l0,0
						c0.4,0.4,0.7,1,0.7,1.6v11.9h0.4c1.7-1.5,3.7-3.3,6.1-5.4c2.3-2.1,4.5-3.8,6.6-5.1c2.2-1.5,5.1-2.7,8.6-3.6
						c3.5-1,7.4-1.5,11.6-1.5c6.9,0,12.7,1.5,17.3,4.5c4.6,3,7.9,7,9.9,12h0.8c1.8-1.6,3.9-3.6,6.5-5.8c2.5-2.2,4.9-4,7-5.3
						c2.4-1.5,5.4-2.8,9.1-3.8c3.7-1,7.6-1.5,11.8-1.5c9.2,0,16.2,2.7,21.2,8.1c4.9,5.4,7.4,13.1,7.4,23v44.2c0,2.2,0.3,4,1,5.4
						c0.7,1.4,1.9,2.4,3.6,3.1c1,0.4,2.2,0.8,3.6,1.3c0.7,0.2,1.4,0.4,2.2,0.5c1.6,0.3,2.7,1.7,2.7,3.4v0.2
						C1396.9-1803.3,1395.3-1801.8,1393.4-1801.8z"/>
					<path class="st23" d="M1506.8-1888.2c0,1.6-1.1,2.9-2.6,3.4c-1.8,0.6-3.6,1.4-5.4,2.5c-2.6,1.6-4.7,4.2-6.4,7.6
						c-5.2,11-10.6,22.8-16.1,35.3c-5.5,12.5-11.6,26-18.4,40.4c-3.8,8.1-7.4,14.6-10.9,19.5c-3.5,4.9-6.8,8.6-9.9,11.2
						c-2.9,2.4-5.8,4.2-8.6,5.3c-2.9,1.1-5.7,1.6-8.6,1.6c-5.8,0-10.4-1.6-14-4.8c-3.5-3.2-5.3-6.8-5.3-10.8c0-1.7,0.2-3.3,0.6-4.7
						c0.4-1.5,1.2-3,2.5-4.6c1-1.3,2.5-2.5,4.5-3.4c2-0.9,4.3-1.4,6.9-1.4c3.4,0,6.6,1.2,9.7,3.5c2.3,1.8,4.7,4,7.1,6.8
						c1.4,1.6,3.9,1.6,5.3,0c1.4-1.6,2.9-3.6,4.6-5.9c2.6-3.5,4.6-7.2,6-10.9c0.3-0.9,0.3-1.9-0.1-2.7c-7-14.6-13.1-27.3-18.6-38.1
						c-5.6-11.1-11.8-23.5-18.7-37.2c-1.5-2.9-3.5-5.2-6.1-6.8c-1.7-1.1-3.5-1.9-5.4-2.4c-1.6-0.4-2.7-1.8-2.7-3.4v-0.3
						c0-1.9,1.6-3.5,3.5-3.5h48.7c1.9,0,3.5,1.6,3.5,3.5l0,0c0,1.7-1.2,3.2-2.9,3.5c-1.3,0.2-2.7,0.6-4.2,1.1c-2.7,0.9-4,1.9-4,3.3
						c0,0.5,0.1,1,0.3,1.6c0.2,0.6,0.5,1.4,1,2.5c2.1,4.2,5,10.1,8.8,17.7c2.9,5.8,6.2,12.4,9.9,19.7c1.3,2.7,5.2,2.6,6.4-0.2
						c2.5-5.7,4.7-10.8,6.6-15.3c2.6-6.2,5.2-12.3,7.7-18.3c0.6-1.5,1-2.7,1-3.6c0.1-0.9,0.1-1.5,0.1-1.8c0-1.1-0.5-2-1.6-2.9
						c-1.1-0.8-2.3-1.5-3.8-2.1c-1.5-0.6-3-1.1-4.4-1.4c-0.2-0.1-0.5-0.1-0.7-0.1c-1.6-0.3-2.8-1.8-2.8-3.4v-0.2
						c0-1.9,1.6-3.5,3.5-3.5h30.6c1.9,0,3.5,1.6,3.5,3.5V-1888.2z"/>
				</g>
				<g>
					<path class="st23" d="M866.1-1800.8c-8.6,0-16.7-1.1-24.1-3.2c-4.8-1.4-10-2.7-13.8-3.7c-4-1.1-10.2-1.4-13.5,0.2
						c-0.1,0.1-0.2,0.1-0.3,0.1l-4.4,1.5c-0.2,0.1-0.3,0.1-0.4,0.1c0,0-0.3,0.1-0.3-0.1c-0.4-3.1-5-37.3-3.5-48.8
						c0-0.1,0.1-0.1,0.2-0.3c0.7-0.6,1.5-0.9,2.4-0.8c4.1,0.4,7.6,3,9.4,6.7c1.3,2.8,2.8,5.6,4.4,8.6c3,5.4,6.4,10.2,10.4,14.5
						c4,4.5,8.6,8.1,13.6,10.9c5,2.8,10.9,4.2,17.6,4.2c9,0,15.9-2.2,20.8-6.6c4.8-4.4,7.2-10,7.2-16.7c0-5.5-2-10.1-6.1-13.9
						c-4.1-3.8-10.4-7-19-9.7c-5.6-1.8-10.7-3.5-15.4-5c-4.7-1.5-9.1-3.1-13.2-4.7c-9.5-3.8-16.5-9.2-21.2-16.2
						c-4.6-7-6.9-14.9-6.9-23.6c0-5.5,1.2-10.8,3.6-15.9c2.4-5.1,5.9-9.7,10.5-13.7c4.4-3.8,10-6.9,16.8-9.3
						c6.8-2.4,14.3-3.6,22.3-3.6c7.8,0,15.2,1.1,22,3.3c4.1,1.3,7.6,2.6,10.6,3.9c3.5,1.5,17.3,10.4,17.4,15.2l1.1,21.3
						c0.1,4.7-10.3-2.1-13-7.5c-2.7-5.4-5.5-9.9-8.5-13.5c-3.3-3.9-7-6.9-11.3-9.2c-4.2-2.3-9.2-3.4-14.9-3.4c-7.2,0-13,2-17.6,6.1
						c-4.5,4.1-6.8,9.1-6.8,15.1c0,5.7,2,10.3,5.9,13.9c3.9,3.6,10.1,6.7,18.5,9.5c4.9,1.7,9.9,3.3,15,5c5.1,1.7,9.7,3.3,13.6,4.8
						c9.6,3.7,16.9,8.9,22,15.4c5,6.5,7.5,14.7,7.5,24.4c0,6.1-1.4,12-4.3,17.7c-2.9,5.7-6.7,10.5-11.5,14.3
						c-5.3,4.2-11.4,7.4-18.4,9.7C883.5-1802,875.4-1800.8,866.1-1800.8z"/>
				</g>
			</g>
		</g>
	</g>
</g>
<g>
	<g>
		<g>
			
				<radialGradient id="SVGID_27_" cx="1951.2773" cy="-5455.0288" r="231.3187" fx="1949.8323" fy="-5466.9585" gradientTransform="matrix(-0.9185 0.3954 -0.3954 -0.9185 -12.22 -5283.6113)" gradientUnits="userSpaceOnUse">
				<stop  offset="0" style="stop-color:#ED4617"/>
				<stop  offset="1" style="stop-color:#F16F22"/>
			</radialGradient>
			<path class="st33" d="M135.4,574.2c-33.6-64.4-63.5-177.3-16.6-218.9c19.7-17.5,35.7-7.1,201.8,4.2c79.8,5.4,98.4,4.5,132.2,17.8
				c17.9,7,72.7,29.3,114,86.4c14.3,19.7,65.2,90,45,160.3c-25,87-144.7,124.1-228.1,121.4C225.1,740,142.7,588.3,135.4,574.2z"/>
		</g>
		<g>
			
				<radialGradient id="SVGID_28_" cx="-1689.5394" cy="-5062.4463" r="241.6458" fx="-1691.0491" fy="-5074.9087" gradientTransform="matrix(-0.7715 -0.6362 0.6362 -0.7715 2337.1819 -4522.8569)" gradientUnits="userSpaceOnUse">
				<stop  offset="0" style="stop-color:#F1DD26"/>
				<stop  offset="1" style="stop-color:#F4BD1E"/>
			</radialGradient>
			<path class="st34" d="M229.3,254.2c10-15.8,44.3-70,99.5-76.9c55.4-6.9,99,38.6,186.2,129.7c72.6,75.8,110,116,122.8,183.3
				c4.3,22.5,13.9,73-11,126C594.1,685.8,514.6,732.6,438,725.7c-76.3-6.9-122-64.6-153.5-104.6C209,525.7,159.2,364.8,229.3,254.2z
				"/>
		</g>
		<g>
			
				<radialGradient id="SVGID_29_" cx="665.4977" cy="454.0392" r="243.6069" fx="664.7406" fy="439.0659" gradientTransform="matrix(0.9973 7.333645e-02 -7.333645e-02 0.9973 -194.0479 -39.4459)" gradientUnits="userSpaceOnUse">
				<stop  offset="0" style="stop-color:#30A9DC"/>
				<stop  offset="1" style="stop-color:#0C73B8"/>
			</radialGradient>
			<path class="st35" d="M622.7,232.3c91.4,50.5,84.3,411.3-87,471c-93.1,32.4-207.1-33.7-267-104c-10.4-12.2-99.5-116.8-64.4-198
				c16-37,46.7-43.4,227.8-111.6C589,230.6,603.1,221.4,622.7,232.3z"/>
		</g>
	</g>
	<g>
		<linearGradient id="SVGID_30_" gradientUnits="userSpaceOnUse" x1="297.4909" y1="502.7022" x2="511.0875" y2="502.7022">
			<stop  offset="0" style="stop-color:#7118B7;stop-opacity:0.9"/>
			<stop  offset="1" style="stop-color:#7118B7;stop-opacity:0.6"/>
		</linearGradient>
		<path class="st36" d="M406,636.2c-15.5,0-29.9-1.9-43.2-5.8c-8.6-2.5-17.8-4.8-24.7-6.7c-7.2-2-18.2-2.4-24.1,0.3
			c-0.2,0.1-0.4,0.2-0.6,0.2l-7.8,2.6c-0.4,0.2-0.5,0.2-0.7,0.3c0,0-0.6,0.2-0.6-0.1c-0.8-5.6-9-66.8-6.2-87.3
			c0-0.1,0.2-0.3,0.4-0.5c1.2-1,2.8-1.5,4.3-1.4c7.3,0.8,13.7,5.3,16.8,12c2.4,5,5,10.1,7.9,15.4c5.4,9.7,11.5,18.3,18.5,25.9
			c7.3,8,15.4,14.5,24.3,19.5c9,5,19.5,7.5,31.5,7.5c16.2,0,28.6-4,37.2-11.9c8.6-7.9,12.9-17.9,12.9-29.9c0-9.9-3.7-18.2-11-24.9
			c-7.3-6.7-18.6-12.5-34-17.4c-10-3.2-19.2-6.2-27.6-9c-8.4-2.7-16.3-5.6-23.6-8.4c-17-6.8-29.6-16.5-37.9-29.1
			c-8.3-12.6-12.4-26.7-12.4-42.3c0-9.9,2.1-19.4,6.4-28.5c4.3-9.1,10.5-17.3,18.7-24.6c7.8-6.8,17.9-12.3,30.1-16.6
			c12.2-4.3,25.6-6.4,39.9-6.4c14,0,27.2,2,39.4,5.9c7.3,2.3,13.6,4.7,19,7c6.2,2.7,31,18.6,31.1,27.2l2,38.1
			c0.1,8.4-18.5-3.7-23.3-13.4s-9.9-17.8-15.2-24.2c-5.8-6.9-12.5-12.4-20.2-16.5c-7.6-4.1-16.5-6.2-26.8-6.2
			c-12.8,0-23.3,3.6-31.5,10.9c-8.1,7.3-12.2,16.3-12.2,27c0,10.1,3.5,18.4,10.6,24.8c7.1,6.4,18.1,12.1,33.1,17
			c8.8,3,17.8,6,26.9,8.9c9.2,3,17.3,5.8,24.4,8.6c17.2,6.7,30.3,15.9,39.3,27.6c9,11.7,13.5,26.3,13.5,43.7c0,11-2.6,21.6-7.7,31.8
			c-5.1,10.2-12,18.8-20.7,25.5c-9.5,7.5-20.5,13.3-33,17.3C437.3,634.2,422.7,636.2,406,636.2z"/>
	</g>
</g>
<g>
	<line class="st17" x1="757.8" y1="418.3" x2="757.8" y2="737.3"/>
	<g>
		<g>
			<path class="st18" d="M1054.3,608.6c1,0.7,1.2,2.1,0.5,3.1c-1.9,2.8-4,5.4-6.5,7.9c-3,3.1-6.4,5.7-10.2,7.9
				c-4.1,2.3-8.2,4-12.3,5.2c-4.2,1.2-8.9,1.8-14.3,1.8c-9,0-16.7-1.3-23.3-3.8c-6.5-2.5-11.9-6-16.2-10.3
				c-4.2-4.3-7.4-9.4-9.5-15.2c-2.1-5.9-3.1-12.2-3.1-19.1c0-6.2,1.1-12.1,3.4-17.8c2.3-5.7,5.5-10.7,9.7-15.2
				c4.1-4.3,9.3-7.8,15.6-10.5c6.3-2.7,13.3-4,21.1-4c8.5,0,15.5,1,20.9,3.1c5.5,2.1,10,4.9,13.6,8.6c3.5,3.5,6,7.5,7.6,12.2
				c1.6,4.7,2.4,9.6,2.4,14.8v3.7c0,1.2-1,2.2-2.2,2.2h-57c-1.2,0-2.3,1-2.2,2.3c0.3,11.3,2.7,20,7.2,26.1
				c4.8,6.5,12.4,9.7,22.8,9.7c5.7,0,10.8-1.6,15.4-4.7c4-2.7,7.4-6.1,10.4-10.1c0.7-1,2.1-1.2,3.1-0.4L1054.3,608.6z M1019,575.3
				c1.2,0,2.2-1,2.2-2.3c-0.1-2.9-0.2-5.9-0.5-9c-0.4-3.8-1-6.9-1.9-9.4c-1-2.9-2.4-5-4.2-6.5c-1.8-1.5-4-2.2-6.8-2.2
				c-4.7,0-8.4,2.4-11.2,7.1c-2.6,4.4-4.1,11.1-4.5,20.1c-0.1,1.3,1,2.4,2.3,2.4L1019,575.3z"/>
			<path class="st18" d="M1236.6,631.6h-47.2c-1.9,0-3.4-1.5-3.4-3.4V628c0-1.8,1.3-3.3,3.1-3.4c0.3,0,0.7-0.1,1-0.1
				c1.4-0.1,2.6-0.4,3.6-0.9c1.3-0.6,2.2-1.6,2.5-3c0.4-1.4,0.5-3.3,0.5-5.5v-42.5c0-6.2-1.1-10.9-3.3-14.1
				c-2.2-3.1-5.4-4.7-9.5-4.7c-2.6,0-4.9,0.4-7,1.2c-2,0.8-3.9,1.8-5.6,3c-1.8,1.3-3.1,2.5-4.1,3.8c-0.7,0.9-1.3,1.7-1.8,2.4
				c-0.4,0.6-0.7,1.3-0.7,2.1V614c0,2.2,0.3,4,0.8,5.3c0.5,1.4,1.5,2.4,2.8,3.2c1,0.5,2.1,1,3.3,1.5c0.4,0.1,0.8,0.3,1.3,0.4
				c1.5,0.4,2.7,1.8,2.7,3.4v0.4c0,1.9-1.5,3.4-3.4,3.4h-44.8c-1.9,0-3.4-1.5-3.4-3.4V628c0-1.8,1.3-3.2,3.1-3.4
				c0.4,0,0.7-0.1,1.1-0.1c1.6-0.2,2.8-0.5,3.6-0.9c1.3-0.7,2.1-1.6,2.5-2.9c0.4-1.3,0.6-3.2,0.6-5.6v-42.5c0-6.2-1.1-10.9-3.3-14.1
				c-2.2-3.1-5.4-4.7-9.5-4.7c-2.6,0-4.9,0.4-7,1.2c-2,0.8-3.9,1.8-5.6,3c-1.8,1.3-3.1,2.5-4.1,3.8c-0.7,0.9-1.3,1.7-1.8,2.4
				c-0.4,0.6-0.7,1.3-0.7,2.1V614c0,2.1,0.3,3.9,0.8,5.3c0.5,1.4,1.5,2.5,2.9,3.3c1,0.5,2.1,1,3.3,1.5c0.4,0.1,0.8,0.3,1.3,0.4
				c1.6,0.4,2.7,1.8,2.7,3.4v0.4c0,1.9-1.5,3.4-3.4,3.4h-47.6c-1.9,0-3.4-1.5-3.4-3.4v-0.1c0-1.8,1.3-3.2,3.1-3.4
				c0.5-0.1,1-0.1,1.6-0.2c1.5-0.2,2.8-0.5,3.9-0.9c1.9-0.7,3.3-1.8,4-3.1c0.7-1.4,1.1-3.2,1.1-5.4v-53c0-1.9-0.5-3.8-1.5-5.7
				c-1-1.9-2.3-3.3-3.7-4.3c-1.1-0.7-2.5-1.3-4.1-1.8c-0.8-0.2-1.7-0.4-2.6-0.6c-1.7-0.3-2.9-1.7-2.9-3.4v-0.4
				c0-1.8,1.4-3.3,3.3-3.4l39.2-2.1c0.6,0,1.3,0.2,1.7,0.7l0,0c0.4,0.4,0.7,1,0.7,1.6v11.9h0.4c1.7-1.5,3.7-3.3,6.1-5.4
				c2.3-2.1,4.5-3.8,6.6-5.1c2.2-1.5,5.1-2.7,8.6-3.6c3.5-1,7.4-1.5,11.6-1.5c6.9,0,12.7,1.5,17.3,4.5c4.6,3,7.9,7,9.9,12h0.8
				c1.8-1.6,3.9-3.6,6.5-5.8c2.5-2.2,4.9-4,7-5.3c2.4-1.5,5.4-2.8,9.1-3.8c3.7-1,7.6-1.5,11.8-1.5c9.2,0,16.2,2.7,21.2,8.1
				c4.9,5.4,7.4,13.1,7.4,23v44.2c0,2.2,0.3,4,1,5.4c0.7,1.4,1.9,2.4,3.6,3.1c1,0.4,2.2,0.8,3.6,1.3c0.7,0.2,1.4,0.4,2.2,0.5
				c1.6,0.3,2.7,1.7,2.7,3.4v0.2C1240.1,630.1,1238.5,631.6,1236.6,631.6z"/>
			<path class="st18" d="M1422.6,631.6h-47.2c-1.9,0-3.4-1.5-3.4-3.4V628c0-1.8,1.3-3.3,3.1-3.4c0.3,0,0.7-0.1,1-0.1
				c1.4-0.1,2.6-0.4,3.6-0.9c1.3-0.6,2.2-1.6,2.5-3c0.4-1.4,0.5-3.3,0.5-5.5v-42.5c0-6.2-1.1-10.9-3.3-14.1
				c-2.2-3.1-5.4-4.7-9.5-4.7c-2.6,0-4.9,0.4-7,1.2c-2,0.8-3.9,1.8-5.6,3c-1.8,1.3-3.1,2.5-4.1,3.8c-0.7,0.9-1.3,1.7-1.8,2.4
				c-0.4,0.6-0.7,1.3-0.7,2.1V614c0,2.2,0.3,4,0.8,5.3c0.5,1.4,1.5,2.4,2.8,3.2c1,0.5,2.1,1,3.3,1.5c0.4,0.1,0.8,0.3,1.3,0.4
				c1.5,0.4,2.7,1.8,2.7,3.4v0.4c0,1.9-1.5,3.4-3.4,3.4h-44.8c-1.9,0-3.4-1.5-3.4-3.4V628c0-1.8,1.3-3.2,3.1-3.4
				c0.4,0,0.7-0.1,1.1-0.1c1.6-0.2,2.8-0.5,3.6-0.9c1.3-0.7,2.1-1.6,2.5-2.9c0.4-1.3,0.6-3.2,0.6-5.6v-42.5c0-6.2-1.1-10.9-3.3-14.1
				c-2.2-3.1-5.4-4.7-9.5-4.7c-2.6,0-4.9,0.4-7,1.2c-2,0.8-3.9,1.8-5.6,3c-1.8,1.3-3.1,2.5-4.1,3.8c-0.7,0.9-1.3,1.7-1.8,2.4
				c-0.4,0.6-0.7,1.3-0.7,2.1V614c0,2.1,0.3,3.9,0.8,5.3c0.5,1.4,1.5,2.5,2.9,3.3c1,0.5,2.1,1,3.3,1.5c0.4,0.1,0.8,0.3,1.3,0.4
				c1.6,0.4,2.7,1.8,2.7,3.4v0.4c0,1.9-1.5,3.4-3.4,3.4h-47.6c-1.9,0-3.4-1.5-3.4-3.4v-0.1c0-1.8,1.3-3.2,3.1-3.4
				c0.5-0.1,1-0.1,1.6-0.2c1.5-0.2,2.8-0.5,3.9-0.9c1.9-0.7,3.3-1.8,4-3.1c0.7-1.4,1.1-3.2,1.1-5.4v-53c0-1.9-0.5-3.8-1.5-5.7
				c-1-1.9-2.3-3.3-3.7-4.3c-1.1-0.7-2.5-1.3-4.1-1.8c-0.8-0.2-1.7-0.4-2.6-0.6c-1.7-0.3-2.9-1.7-2.9-3.4v-0.4
				c0-1.8,1.4-3.3,3.3-3.4l39.2-2.1c0.6,0,1.3,0.2,1.7,0.7l0,0c0.4,0.4,0.7,1,0.7,1.6v11.9h0.4c1.7-1.5,3.7-3.3,6.1-5.4
				c2.3-2.1,4.5-3.8,6.6-5.1c2.2-1.5,5.1-2.7,8.6-3.6c3.5-1,7.4-1.5,11.6-1.5c6.9,0,12.7,1.5,17.3,4.5c4.6,3,7.9,7,9.9,12h0.8
				c1.8-1.6,3.9-3.6,6.5-5.8c2.5-2.2,4.9-4,7-5.3c2.4-1.5,5.4-2.8,9.1-3.8c3.7-1,7.6-1.5,11.8-1.5c9.2,0,16.2,2.7,21.2,8.1
				c4.9,5.4,7.4,13.1,7.4,23v44.2c0,2.2,0.3,4,1,5.4c0.7,1.4,1.9,2.4,3.6,3.1c1,0.4,2.2,0.8,3.6,1.3c0.7,0.2,1.4,0.4,2.2,0.5
				c1.6,0.3,2.7,1.7,2.7,3.4v0.2C1426,630.1,1424.5,631.6,1422.6,631.6z"/>
			<path class="st18" d="M1535.9,545.2c0,1.6-1.1,2.9-2.6,3.4c-1.8,0.6-3.6,1.4-5.4,2.5c-2.6,1.6-4.7,4.2-6.4,7.6
				c-5.2,11-10.6,22.8-16.1,35.3c-5.5,12.5-11.6,26-18.4,40.4c-3.8,8.1-7.4,14.6-10.9,19.5c-3.5,4.9-6.8,8.6-9.9,11.2
				c-2.9,2.4-5.8,4.2-8.6,5.3c-2.9,1.1-5.7,1.6-8.6,1.6c-5.8,0-10.4-1.6-14-4.8c-3.5-3.2-5.3-6.8-5.3-10.8c0-1.7,0.2-3.3,0.6-4.7
				c0.4-1.5,1.2-3,2.5-4.6c1-1.3,2.5-2.5,4.5-3.4c2-0.9,4.3-1.4,6.9-1.4c3.4,0,6.6,1.2,9.7,3.5c2.3,1.8,4.7,4,7.1,6.8
				c1.4,1.6,3.9,1.6,5.3,0c1.4-1.6,2.9-3.6,4.6-5.9c2.6-3.5,4.6-7.2,6-10.9c0.3-0.9,0.3-1.9-0.1-2.7c-7-14.6-13.1-27.3-18.6-38.1
				c-5.6-11.1-11.8-23.5-18.7-37.2c-1.5-2.9-3.5-5.2-6.1-6.8c-1.7-1.1-3.5-1.9-5.4-2.4c-1.6-0.4-2.7-1.8-2.7-3.4v-0.3
				c0-1.9,1.6-3.5,3.5-3.5h48.7c1.9,0,3.5,1.6,3.5,3.5l0,0c0,1.7-1.2,3.2-2.9,3.5c-1.3,0.2-2.7,0.6-4.2,1.1c-2.7,0.9-4,1.9-4,3.3
				c0,0.5,0.1,1,0.3,1.6c0.2,0.6,0.5,1.4,1,2.5c2.1,4.2,5,10.1,8.8,17.7c2.9,5.8,6.2,12.4,9.9,19.7c1.3,2.7,5.2,2.6,6.4-0.2
				c2.5-5.7,4.7-10.8,6.6-15.3c2.6-6.2,5.2-12.3,7.7-18.3c0.6-1.5,1-2.7,1-3.6c0.1-0.9,0.1-1.5,0.1-1.8c0-1.1-0.5-2-1.6-2.9
				c-1.1-0.8-2.3-1.5-3.8-2.1c-1.5-0.6-3-1.1-4.4-1.4c-0.2-0.1-0.5-0.1-0.7-0.1c-1.6-0.3-2.8-1.8-2.8-3.4v-0.2
				c0-1.9,1.6-3.5,3.5-3.5h30.6c1.9,0,3.5,1.6,3.5,3.5V545.2z"/>
		</g>
		<g>
			<path class="st18" d="M895.2,632.6c-8.6,0-16.7-1.1-24.1-3.2c-4.8-1.4-10-2.7-13.8-3.7c-4-1.1-10.2-1.4-13.5,0.2
				c-0.1,0.1-0.2,0.1-0.3,0.1l-4.4,1.5c-0.2,0.1-0.3,0.1-0.4,0.1c0,0-0.3,0.1-0.3-0.1c-0.4-3.1-5-37.3-3.5-48.8
				c0-0.1,0.1-0.1,0.2-0.3c0.7-0.6,1.5-0.9,2.4-0.8c4.1,0.4,7.6,3,9.4,6.7c1.3,2.8,2.8,5.6,4.4,8.6c3,5.4,6.4,10.2,10.4,14.5
				c4,4.5,8.6,8.1,13.6,10.9c5,2.8,10.9,4.2,17.6,4.2c9,0,15.9-2.2,20.8-6.6c4.8-4.4,7.2-10,7.2-16.7c0-5.5-2-10.1-6.1-13.9
				c-4.1-3.8-10.4-7-19-9.7c-5.6-1.8-10.7-3.5-15.4-5c-4.7-1.5-9.1-3.1-13.2-4.7c-9.5-3.8-16.5-9.2-21.2-16.2
				c-4.6-7-6.9-14.9-6.9-23.6c0-5.5,1.2-10.8,3.6-15.9c2.4-5.1,5.9-9.7,10.5-13.7c4.4-3.8,10-6.9,16.8-9.3
				c6.8-2.4,14.3-3.6,22.3-3.6c7.8,0,15.2,1.1,22,3.3c4.1,1.3,7.6,2.6,10.6,3.9c3.5,1.5,17.3,10.4,17.4,15.2l1.1,21.3
				c0.1,4.7-10.3-2.1-13-7.5c-2.7-5.4-5.5-9.9-8.5-13.5c-3.3-3.9-7-6.9-11.3-9.2c-4.2-2.3-9.2-3.4-14.9-3.4c-7.2,0-13,2-17.6,6.1
				c-4.5,4.1-6.8,9.1-6.8,15.1c0,5.7,2,10.3,5.9,13.9c3.9,3.6,10.1,6.7,18.5,9.5c4.9,1.7,9.9,3.3,15,5c5.1,1.7,9.7,3.3,13.6,4.8
				c9.6,3.7,16.9,8.9,22,15.4c5,6.5,7.5,14.7,7.5,24.4c0,6.1-1.4,12-4.3,17.7c-2.9,5.7-6.7,10.5-11.5,14.3
				c-5.3,4.2-11.4,7.4-18.4,9.7C912.7,631.4,904.5,632.6,895.2,632.6z"/>
		</g>
	</g>
</g>
<line class="st37" x1="271.6" y1="634.9" x2="1561.8" y2="634.9"/>
<g>
	<g>
		<g>
			<g>
				<g>
					<path class="st32" d="M1844.4-2539.2c-13.1,0-25.2-1.6-36.5-4.9c-7.3-2.1-15.1-4-20.9-5.7c-6-1.7-15.4-2.1-20.4,0.3
						c-0.2,0.1-0.3,0.1-0.5,0.2l-6.6,2.2c-0.4,0.1-0.4,0.2-0.6,0.2c0,0-0.5,0.1-0.5-0.1c-0.6-4.7-7.6-56.5-5.2-73.8
						c0-0.1,0.1-0.2,0.3-0.4c1-0.9,2.3-1.3,3.7-1.2c6.1,0.7,11.6,4.5,14.2,10.2c2,4.2,4.2,8.5,6.7,13c4.5,8.2,9.7,15.5,15.7,21.9
						c6.1,6.7,13,12.2,20.6,16.5c7.6,4.2,16.4,6.3,26.6,6.3c13.7,0,24.1-3.3,31.4-10c7.3-6.7,10.9-15.1,10.9-25.3
						c0-8.3-3.1-15.4-9.3-21c-6.2-5.7-15.7-10.6-28.7-14.7c-8.4-2.7-16.2-5.2-23.3-7.6c-7.1-2.3-13.7-4.7-20-7.1
						c-14.4-5.7-25-13.9-32-24.6c-7-10.7-10.5-22.6-10.5-35.8c0-8.3,1.8-16.4,5.4-24.1c3.6-7.7,8.9-14.6,15.8-20.7
						c6.6-5.7,15.1-10.4,25.5-14c10.3-3.6,21.6-5.4,33.8-5.4c11.9,0,23,1.7,33.3,5c6.1,2,11.5,3.9,16.1,5.9
						c5.2,2.3,26.2,15.7,26.3,23l1.7,32.2c0.1,7.1-15.6-3.1-19.7-11.3c-4.1-8.2-8.4-15-12.9-20.5c-4.9-5.8-10.6-10.5-17-14
						c-6.4-3.5-14-5.2-22.6-5.2c-10.8,0-19.7,3.1-26.6,9.2c-6.9,6.1-10.3,13.7-10.3,22.8c0,8.6,3,15.5,9,21c6,5.4,15.3,10.2,28,14.3
						c7.4,2.5,15,5,22.8,7.5c7.7,2.5,14.6,4.9,20.6,7.2c14.6,5.6,25.6,13.4,33.2,23.3c7.6,9.9,11.4,22.2,11.4,36.9
						c0,9.3-2.2,18.2-6.5,26.9c-4.3,8.7-10.1,15.8-17.5,21.6c-8,6.3-17.3,11.2-27.9,14.6C1870.8-2541,1858.5-2539.2,1844.4-2539.2z"
						/>
				</g>
			</g>
			<g>
				<g>
					
						<radialGradient id="SVGID_31_" cx="-635.4967" cy="-3144.7415" r="183.3952" fx="-636.6424" fy="-3154.1997" gradientTransform="matrix(-0.9185 0.3954 -0.3954 -0.9185 -12.22 -5283.6113)" gradientUnits="userSpaceOnUse">
						<stop  offset="0" style="stop-color:#ED4617"/>
						<stop  offset="1" style="stop-color:#F16F22"/>
					</radialGradient>
					<path class="st38" d="M1642.9-2586.3c-26.7-51.1-50.4-140.6-13.2-173.6c15.6-13.9,28.3-5.6,160,3.3c63.2,4.3,78,3.6,104.8,14.1
						c14.2,5.6,57.6,23.3,90.4,68.5c11.3,15.6,51.7,71.3,35.7,127.1c-19.8,68.9-114.8,98.4-180.8,96.2
						C1714-2454.8,1648.7-2575.1,1642.9-2586.3z"/>
				</g>
				<g>
					
						<radialGradient id="SVGID_32_" cx="-811.7938" cy="-1721.0807" r="191.5827" fx="-812.9907" fy="-1730.9611" gradientTransform="matrix(-0.7715 -0.6362 0.6362 -0.7715 2337.1819 -4522.8569)" gradientUnits="userSpaceOnUse">
						<stop  offset="0" style="stop-color:#F1DD26"/>
						<stop  offset="1" style="stop-color:#F4BD1E"/>
					</radialGradient>
					<path class="st39" d="M1717.3-2840c7.9-12.5,35.2-55.5,78.9-61c43.9-5.5,78.5,30.6,147.6,102.8c57.5,60.1,87.2,92,97.3,145.3
						c3.4,17.8,11,57.9-8.7,99.9c-25.9,55.2-88.9,92.2-149.6,86.7c-60.5-5.5-96.7-51.2-121.7-82.9
						C1701.2-2624.8,1661.8-2752.3,1717.3-2840z"/>
				</g>
				<g>
					
						<radialGradient id="SVGID_33_" cx="1876.6801" cy="-2780.7769" r="193.1375" fx="1876.0798" fy="-2792.6479" gradientTransform="matrix(0.9973 7.333645e-02 -7.333645e-02 0.9973 -194.0479 -39.4459)" gradientUnits="userSpaceOnUse">
						<stop  offset="0" style="stop-color:#30A9DC"/>
						<stop  offset="1" style="stop-color:#0C73B8"/>
					</radialGradient>
					<path class="st40" d="M2029.3-2857.4c72.4,40,66.8,326.1-69,373.4c-73.8,25.7-164.2-26.7-211.7-82.5
						c-8.3-9.7-78.9-92.6-51.1-157c12.7-29.4,37-34.4,180.6-88.5C2002.5-2858.7,2013.7-2866,2029.3-2857.4z"/>
				</g>
			</g>
		</g>
	</g>
	<g>
		<g>
			<g>
				<path class="st23" d="M1751.6-2344.4c0.7,0.5,0.8,1.5,0.4,2.2c-1.3,1.9-2.8,3.8-4.5,5.5c-2.1,2.1-4.5,4-7.1,5.5
					c-2.8,1.6-5.7,2.8-8.6,3.7c-2.9,0.8-6.2,1.2-10,1.2c-6.3,0-11.7-0.9-16.2-2.7c-4.6-1.8-8.3-4.2-11.3-7.2c-3-3-5.2-6.5-6.6-10.6
					c-1.5-4.1-2.2-8.5-2.2-13.3c0-4.3,0.8-8.5,2.4-12.4c1.6-4,3.8-7.5,6.8-10.6c2.9-3,6.5-5.4,10.9-7.3c4.4-1.9,9.3-2.8,14.7-2.8
					c5.9,0,10.8,0.7,14.6,2.2c3.8,1.4,7,3.4,9.5,6c2.4,2.4,4.2,5.3,5.3,8.5c1.1,3.3,1.7,6.7,1.7,10.3v2.6c0,0.9-0.7,1.6-1.6,1.6
					h-39.8c-0.9,0-1.6,0.7-1.6,1.6c0.2,7.9,1.9,14,5,18.2c3.3,4.5,8.7,6.8,15.9,6.8c4,0,7.6-1.1,10.7-3.3c2.8-1.9,5.2-4.3,7.3-7
					c0.5-0.7,1.5-0.8,2.2-0.3L1751.6-2344.4z M1727-2367.7c0.9,0,1.6-0.7,1.5-1.6c0-2-0.2-4.1-0.4-6.2c-0.3-2.7-0.7-4.8-1.3-6.5
					c-0.7-2-1.7-3.5-3-4.5c-1.2-1-2.8-1.5-4.7-1.5c-3.3,0-5.9,1.7-7.8,5c-1.8,3-2.8,7.7-3.1,14c0,0.9,0.7,1.7,1.6,1.7L1727-2367.7z"
					/>
				<path class="st23" d="M1878.8-2328.4h-32.9c-1.3,0-2.4-1.1-2.4-2.4v-0.1c0-1.2,0.9-2.3,2.2-2.4c0.2,0,0.5,0,0.7-0.1
					c1-0.1,1.8-0.3,2.5-0.6c0.9-0.4,1.5-1.1,1.8-2.1c0.3-1,0.4-2.3,0.4-3.8v-29.6c0-4.4-0.8-7.6-2.3-9.8c-1.5-2.2-3.8-3.3-6.7-3.3
					c-1.8,0-3.4,0.3-4.9,0.9c-1.4,0.6-2.7,1.3-3.9,2.1c-1.2,0.9-2.2,1.8-2.9,2.7c-0.5,0.6-0.9,1.2-1.2,1.6c-0.3,0.4-0.5,0.9-0.5,1.4
					v33.3c0,1.5,0.2,2.8,0.5,3.7c0.4,1,1,1.7,2,2.3c0.7,0.4,1.4,0.7,2.3,1c0.3,0.1,0.6,0.2,0.9,0.3c1.1,0.3,1.9,1.2,1.9,2.3v0.3
					c0,1.3-1.1,2.4-2.4,2.4h-31.3c-1.3,0-2.4-1.1-2.4-2.4v-0.1c0-1.2,0.9-2.3,2.1-2.4c0.2,0,0.5-0.1,0.8-0.1c1.1-0.1,2-0.3,2.5-0.6
					c0.9-0.5,1.5-1.1,1.7-2c0.3-0.9,0.4-2.2,0.4-3.9v-29.6c0-4.4-0.8-7.6-2.3-9.8c-1.5-2.2-3.8-3.3-6.7-3.3c-1.8,0-3.4,0.3-4.9,0.9
					c-1.4,0.6-2.7,1.3-3.9,2.1c-1.2,0.9-2.2,1.8-2.9,2.7c-0.5,0.6-0.9,1.2-1.2,1.6c-0.3,0.4-0.5,0.9-0.5,1.4v33.3
					c0,1.5,0.2,2.7,0.6,3.7c0.4,1,1.1,1.7,2,2.3c0.7,0.4,1.4,0.7,2.3,1c0.3,0.1,0.6,0.2,0.9,0.3c1.1,0.3,1.9,1.2,1.9,2.3v0.3
					c0,1.3-1.1,2.4-2.4,2.4h-33.2c-1.3,0-2.4-1.1-2.4-2.4v0c0-1.2,0.9-2.3,2.1-2.4c0.4,0,0.7-0.1,1.1-0.1c1.1-0.1,2-0.3,2.7-0.6
					c1.4-0.5,2.3-1.2,2.8-2.2c0.5-1,0.8-2.2,0.8-3.8v-37c0-1.4-0.4-2.7-1.1-4c-0.7-1.3-1.6-2.3-2.6-3c-0.8-0.5-1.7-0.9-2.9-1.3
					c-0.6-0.2-1.2-0.3-1.8-0.4c-1.2-0.2-2-1.2-2-2.3v-0.3c0-1.3,1-2.3,2.3-2.4l27.3-1.5c0.4,0,0.9,0.1,1.2,0.5v0
					c0.3,0.3,0.5,0.7,0.5,1.1v8.3h0.3c1.2-1.1,2.6-2.3,4.2-3.8c1.6-1.5,3.2-2.6,4.6-3.5c1.6-1,3.6-1.9,6-2.5c2.5-0.7,5.1-1,8.1-1
					c4.8,0,8.9,1,12.1,3.1c3.2,2.1,5.5,4.9,6.9,8.3h0.6c1.2-1.1,2.7-2.5,4.5-4c1.8-1.5,3.4-2.8,4.9-3.7c1.7-1.1,3.8-1.9,6.3-2.7
					c2.6-0.7,5.3-1.1,8.2-1.1c6.4,0,11.3,1.9,14.8,5.7c3.4,3.8,5.2,9.1,5.2,16.1v30.9c0,1.6,0.2,2.8,0.7,3.8c0.5,1,1.3,1.7,2.5,2.2
					c0.7,0.3,1.5,0.6,2.5,0.9c0.5,0.1,1,0.3,1.5,0.4c1.1,0.2,1.9,1.2,1.9,2.4v0.1C1881.2-2329.5,1880.1-2328.4,1878.8-2328.4z"/>
				<path class="st23" d="M2008.5-2328.4h-32.9c-1.3,0-2.4-1.1-2.4-2.4v-0.1c0-1.2,0.9-2.3,2.2-2.4c0.2,0,0.5,0,0.7-0.1
					c1-0.1,1.8-0.3,2.5-0.6c0.9-0.4,1.5-1.1,1.8-2.1c0.3-1,0.4-2.3,0.4-3.8v-29.6c0-4.4-0.8-7.6-2.3-9.8c-1.5-2.2-3.8-3.3-6.7-3.3
					c-1.8,0-3.4,0.3-4.9,0.9c-1.4,0.6-2.7,1.3-3.9,2.1c-1.2,0.9-2.2,1.8-2.9,2.7c-0.5,0.6-0.9,1.2-1.2,1.6c-0.3,0.4-0.5,0.9-0.5,1.4
					v33.3c0,1.5,0.2,2.8,0.5,3.7c0.4,1,1,1.7,2,2.3c0.7,0.4,1.4,0.7,2.3,1c0.3,0.1,0.6,0.2,0.9,0.3c1.1,0.3,1.9,1.2,1.9,2.3v0.3
					c0,1.3-1.1,2.4-2.4,2.4h-31.3c-1.3,0-2.4-1.1-2.4-2.4v-0.1c0-1.2,0.9-2.3,2.1-2.4c0.2,0,0.5-0.1,0.8-0.1c1.1-0.1,2-0.3,2.5-0.6
					c0.9-0.5,1.5-1.1,1.7-2c0.3-0.9,0.4-2.2,0.4-3.9v-29.6c0-4.4-0.8-7.6-2.3-9.8c-1.5-2.2-3.8-3.3-6.7-3.3c-1.8,0-3.4,0.3-4.9,0.9
					c-1.4,0.6-2.7,1.3-3.9,2.1c-1.2,0.9-2.2,1.8-2.9,2.7c-0.5,0.6-0.9,1.2-1.2,1.6c-0.3,0.4-0.5,0.9-0.5,1.4v33.3
					c0,1.5,0.2,2.7,0.6,3.7c0.4,1,1.1,1.7,2,2.3c0.7,0.4,1.4,0.7,2.3,1c0.3,0.1,0.6,0.2,0.9,0.3c1.1,0.3,1.9,1.2,1.9,2.3v0.3
					c0,1.3-1.1,2.4-2.4,2.4h-33.2c-1.3,0-2.4-1.1-2.4-2.4v0c0-1.2,0.9-2.3,2.1-2.4c0.4,0,0.7-0.1,1.1-0.1c1.1-0.1,2-0.3,2.7-0.6
					c1.4-0.5,2.3-1.2,2.8-2.2c0.5-1,0.8-2.2,0.8-3.8v-37c0-1.4-0.4-2.7-1.1-4c-0.7-1.3-1.6-2.3-2.6-3c-0.8-0.5-1.7-0.9-2.9-1.3
					c-0.6-0.2-1.2-0.3-1.8-0.4c-1.2-0.2-2-1.2-2-2.3v-0.3c0-1.3,1-2.3,2.3-2.4l27.3-1.5c0.4,0,0.9,0.1,1.2,0.5v0
					c0.3,0.3,0.5,0.7,0.5,1.1v8.3h0.3c1.2-1.1,2.6-2.3,4.2-3.8c1.6-1.5,3.2-2.6,4.6-3.5c1.6-1,3.6-1.9,6-2.5c2.5-0.7,5.1-1,8.1-1
					c4.8,0,8.9,1,12.1,3.1c3.2,2.1,5.5,4.9,6.9,8.3h0.6c1.2-1.1,2.7-2.5,4.5-4c1.8-1.5,3.4-2.8,4.9-3.7c1.7-1.1,3.8-1.9,6.3-2.7
					c2.6-0.7,5.3-1.1,8.2-1.1c6.4,0,11.3,1.9,14.8,5.7c3.4,3.8,5.2,9.1,5.2,16.1v30.9c0,1.6,0.2,2.8,0.7,3.8c0.5,1,1.3,1.7,2.5,2.2
					c0.7,0.3,1.5,0.6,2.5,0.9c0.5,0.1,1,0.3,1.5,0.4c1.1,0.2,1.9,1.2,1.9,2.4v0.1C2010.9-2329.5,2009.8-2328.4,2008.5-2328.4z"/>
				<path class="st23" d="M2087.6-2388.7c0,1.1-0.8,2-1.8,2.4c-1.3,0.4-2.5,1-3.7,1.7c-1.8,1.1-3.3,2.9-4.5,5.3
					c-3.6,7.7-7.4,15.9-11.2,24.6c-3.9,8.7-8.1,18.1-12.8,28.2c-2.6,5.7-5.2,10.2-7.6,13.6c-2.5,3.4-4.8,6-6.9,7.8
					c-2,1.7-4,2.9-6,3.7c-2,0.8-4,1.1-6,1.1c-4,0-7.3-1.1-9.7-3.4c-2.5-2.2-3.7-4.8-3.7-7.6c0-1.2,0.1-2.3,0.4-3.3
					c0.3-1,0.9-2.1,1.7-3.2c0.7-0.9,1.7-1.7,3.1-2.4c1.4-0.7,3-1,4.8-1c2.4,0,4.6,0.8,6.8,2.5c1.6,1.2,3.3,2.8,5,4.7
					c1,1.1,2.7,1.1,3.7,0c1-1.1,2-2.5,3.2-4.1c1.8-2.5,3.2-5,4.2-7.6c0.2-0.6,0.2-1.3-0.1-1.9c-4.9-10.2-9.2-19-12.9-26.6
					c-3.9-7.8-8.2-16.4-13.1-26c-1.1-2-2.5-3.6-4.3-4.7c-1.2-0.8-2.5-1.3-3.8-1.7c-1.1-0.3-1.9-1.2-1.9-2.4v-0.2
					c0-1.4,1.1-2.4,2.4-2.4h34c1.4,0,2.4,1.1,2.4,2.4l0,0c0,1.2-0.9,2.2-2,2.4c-0.9,0.2-1.9,0.4-2.9,0.7c-1.9,0.6-2.8,1.4-2.8,2.3
					c0,0.3,0.1,0.7,0.2,1.1c0.1,0.4,0.4,1,0.7,1.7c1.4,3,3.5,7.1,6.1,12.3c2,4.1,4.3,8.6,6.9,13.8c0.9,1.9,3.6,1.8,4.4-0.1
					c1.7-4,3.3-7.5,4.6-10.7c1.8-4.3,3.6-8.6,5.4-12.8c0.4-1.1,0.7-1.9,0.7-2.5s0.1-1,0.1-1.2c0-0.8-0.4-1.4-1.1-2
					c-0.7-0.6-1.6-1.1-2.6-1.5c-1.1-0.4-2.1-0.7-3-1c-0.2,0-0.3-0.1-0.5-0.1c-1.1-0.2-1.9-1.2-1.9-2.4v-0.1c0-1.4,1.1-2.4,2.4-2.4
					h21.3c1.4,0,2.4,1.1,2.4,2.4V-2388.7z"/>
			</g>
			<g>
				<path class="st23" d="M1640.6-2327.7c-6,0-11.6-0.8-16.8-2.3c-3.4-1-7-1.9-9.6-2.6c-2.8-0.8-7.1-1-9.4,0.1
					c-0.1,0-0.2,0.1-0.2,0.1l-3,1c-0.2,0.1-0.2,0.1-0.3,0.1c0,0-0.2,0.1-0.2,0c-0.3-2.2-3.5-26-2.4-34c0,0,0.1-0.1,0.2-0.2
					c0.5-0.4,1.1-0.6,1.7-0.5c2.8,0.3,5.3,2.1,6.6,4.7c0.9,1.9,1.9,3.9,3.1,6c2.1,3.8,4.5,7.1,7.2,10.1c2.8,3.1,6,5.6,9.5,7.6
					c3.5,1.9,7.6,2.9,12.3,2.9c6.3,0,11.1-1.5,14.5-4.6c3.4-3.1,5-7,5-11.6c0-3.8-1.4-7.1-4.3-9.7c-2.8-2.6-7.3-4.9-13.2-6.8
					c-3.9-1.3-7.5-2.4-10.7-3.5c-3.3-1.1-6.3-2.2-9.2-3.3c-6.6-2.6-11.5-6.4-14.8-11.3c-3.2-4.9-4.8-10.4-4.8-16.5
					c0-3.8,0.8-7.5,2.5-11.1c1.7-3.5,4.1-6.7,7.3-9.6c3.1-2.6,7-4.8,11.7-6.5c4.8-1.7,10-2.5,15.6-2.5c5.5,0,10.6,0.8,15.4,2.3
					c2.8,0.9,5.3,1.8,7.4,2.7c2.4,1,12.1,7.3,12.1,10.6l0.8,14.8c0.1,3.3-7.2-1.4-9.1-5.2s-3.9-6.9-5.9-9.4
					c-2.3-2.7-4.9-4.8-7.8-6.4c-3-1.6-6.4-2.4-10.4-2.4c-5,0-9.1,1.4-12.3,4.2c-3.2,2.8-4.8,6.3-4.8,10.5c0,3.9,1.4,7.2,4.1,9.7
					c2.8,2.5,7,4.7,12.9,6.6c3.4,1.2,6.9,2.3,10.5,3.5c3.6,1.2,6.7,2.3,9.5,3.3c6.7,2.6,11.8,6.2,15.3,10.7c3.5,4.6,5.2,10.2,5.2,17
					c0,4.3-1,8.4-3,12.4c-2,4-4.7,7.3-8.1,9.9c-3.7,2.9-8,5.2-12.8,6.7C1652.8-2328.5,1647.1-2327.7,1640.6-2327.7z"/>
			</g>
		</g>
	</g>
</g>
<g>
	<g>
		<g>
			
				<radialGradient id="SVGID_34_" cx="-1577.1744" cy="-3748.8948" r="231.3187" fx="-1578.6195" fy="-3760.8245" gradientTransform="matrix(-0.9185 0.3954 -0.3954 -0.9185 -12.22 -5283.6113)" gradientUnits="userSpaceOnUse">
				<stop  offset="0" style="stop-color:#ED4617"/>
				<stop  offset="1" style="stop-color:#F16F22"/>
			</radialGradient>
			<path class="st41" d="M2701.7-2388c-33.6-64.4-63.5-177.3-16.6-218.9c19.7-17.5,35.7-7.1,201.8,4.2c79.8,5.4,98.4,4.5,132.2,17.8
				c17.9,7,72.7,29.3,114,86.4c14.3,19.7,65.2,90,45,160.3c-25,87-144.7,124.1-228.1,121.4C2791.5-2222.1,2709.1-2373.9,2701.7-2388
				z"/>
		</g>
		<g>
			
				<radialGradient id="SVGID_35_" cx="-1785.0831" cy="-1144.3171" r="241.6458" fx="-1786.5928" fy="-1156.7794" gradientTransform="matrix(-0.7715 -0.6362 0.6362 -0.7715 2337.1819 -4522.8569)" gradientUnits="userSpaceOnUse">
				<stop  offset="0" style="stop-color:#F1DD26"/>
				<stop  offset="1" style="stop-color:#F4BD1E"/>
			</radialGradient>
			<path class="st42" d="M2795.7-2708c10-15.8,44.3-70,99.5-76.9c55.4-6.9,99,38.6,186.2,129.7c72.6,75.8,110,116,122.8,183.3
				c4.3,22.5,13.9,73-11,126c-32.7,69.6-112.1,116.4-188.7,109.4c-76.3-6.9-122-64.6-153.5-104.6
				C2775.4-2436.5,2725.6-2597.4,2795.7-2708z"/>
		</g>
		<g>
			
				<radialGradient id="SVGID_36_" cx="3007.738" cy="-2688.3765" r="243.6069" fx="3006.981" fy="-2703.3499" gradientTransform="matrix(0.9973 7.333645e-02 -7.333645e-02 0.9973 -194.0479 -39.4459)" gradientUnits="userSpaceOnUse">
				<stop  offset="0" style="stop-color:#30A9DC"/>
				<stop  offset="1" style="stop-color:#0C73B8"/>
			</radialGradient>
			<path class="st43" d="M3189.1-2729.9c91.4,50.5,84.3,411.3-87,471c-93.1,32.4-207.1-33.7-267-104c-10.4-12.2-99.5-116.8-64.4-198
				c16-37,46.7-43.4,227.8-111.6C3155.4-2731.6,3169.4-2740.8,3189.1-2729.9z"/>
		</g>
	</g>
	<g>
		<g>
			<path class="st32" d="M2972.4-2326c-15.5,0-29.9-1.9-43.2-5.8c-8.6-2.5-17.8-4.8-24.7-6.7c-7.2-2-18.2-2.4-24.1,0.3
				c-0.2,0.1-0.4,0.2-0.6,0.2l-7.8,2.6c-0.4,0.2-0.5,0.2-0.7,0.3c0,0-0.6,0.2-0.6-0.1c-0.8-5.6-9-66.8-6.2-87.3
				c0-0.1,0.2-0.3,0.4-0.5c1.2-1,2.8-1.5,4.3-1.4c7.3,0.8,13.7,5.3,16.8,12c2.4,5,5,10.1,7.9,15.4c5.4,9.7,11.5,18.3,18.5,25.9
				c7.3,8,15.4,14.5,24.3,19.5c9,5,19.5,7.5,31.5,7.5c16.2,0,28.6-4,37.2-11.9c8.6-7.9,12.9-17.9,12.9-29.9c0-9.9-3.7-18.2-11-24.9
				c-7.3-6.7-18.6-12.5-34-17.4c-10-3.2-19.2-6.2-27.6-9c-8.4-2.7-16.3-5.6-23.6-8.4c-17-6.8-29.6-16.5-37.9-29.1
				c-8.3-12.6-12.4-26.7-12.4-42.3c0-9.9,2.1-19.4,6.4-28.5c4.3-9.1,10.5-17.3,18.7-24.6c7.8-6.8,17.9-12.3,30.1-16.6
				c12.2-4.3,25.6-6.4,39.9-6.4c14,0,27.2,2,39.4,5.9c7.3,2.3,13.6,4.7,19,7c6.2,2.7,31,18.6,31.1,27.2l2,38.1
				c0.1,8.4-18.5-3.7-23.3-13.4c-4.8-9.7-9.9-17.8-15.2-24.2c-5.8-6.9-12.5-12.4-20.2-16.5c-7.6-4.1-16.5-6.2-26.8-6.2
				c-12.8,0-23.3,3.6-31.5,10.9c-8.1,7.3-12.2,16.3-12.2,27c0,10.1,3.5,18.4,10.6,24.8c7.1,6.4,18.1,12.1,33.1,17
				c8.8,3,17.8,6,26.9,8.9c9.2,3,17.3,5.8,24.4,8.6c17.2,6.7,30.3,15.9,39.3,27.6c9,11.7,13.5,26.3,13.5,43.7
				c0,11-2.6,21.6-7.7,31.8c-5.1,10.2-12,18.8-20.7,25.5c-9.5,7.5-20.5,13.3-33,17.3C3003.6-2328,2989.1-2326,2972.4-2326z"/>
		</g>
	</g>
</g>
<g>
	<g>
		<g>
			
				<radialGradient id="SVGID_37_" cx="-1894.2347" cy="-5051.0186" r="231.3187" fx="-1895.6798" fy="-5062.9482" gradientTransform="matrix(-0.9185 0.3954 -0.3954 -0.9185 -12.22 -5283.6113)" gradientUnits="userSpaceOnUse">
				<stop  offset="0" style="stop-color:#ED4617"/>
				<stop  offset="1" style="stop-color:#F16F22"/>
			</radialGradient>
			<path class="st44" d="M3507.8-1317.3c-33.6-64.4-63.5-177.3-16.6-218.9c19.7-17.5,35.7-7.1,201.8,4.2
				c79.8,5.4,98.4,4.5,132.2,17.8c17.9,7,72.7,29.3,114,86.4c14.3,19.7,65.2,90,45,160.3c-25,87-144.7,124.1-228.1,121.4
				C3597.6-1151.5,3515.2-1303.2,3507.8-1317.3z"/>
		</g>
		<g>
			
				<radialGradient id="SVGID_38_" cx="-3088.1282" cy="-1457.5696" r="241.6458" fx="-3089.6377" fy="-1470.0319" gradientTransform="matrix(-0.7715 -0.6362 0.6362 -0.7715 2337.1819 -4522.8569)" gradientUnits="userSpaceOnUse">
				<stop  offset="0" style="stop-color:#F1DD26"/>
				<stop  offset="1" style="stop-color:#F4BD1E"/>
			</radialGradient>
			<path class="st45" d="M3601.7-1637.3c10-15.8,44.3-70,99.5-76.9c55.4-6.9,99,38.6,186.2,129.7c72.6,75.8,110,116,122.8,183.3
				c4.3,22.5,13.9,73-11,126c-32.7,69.6-112.1,116.4-188.7,109.4c-76.3-6.9-122-64.6-153.5-104.6
				C3581.4-1365.8,3531.7-1526.7,3601.7-1637.3z"/>
		</g>
		<g>
			
				<radialGradient id="SVGID_39_" cx="3890.1409" cy="-1679.7047" r="243.6069" fx="3889.3838" fy="-1694.678" gradientTransform="matrix(0.9973 7.333645e-02 -7.333645e-02 0.9973 -194.0479 -39.4459)" gradientUnits="userSpaceOnUse">
				<stop  offset="0" style="stop-color:#30A9DC"/>
				<stop  offset="1" style="stop-color:#0C73B8"/>
			</radialGradient>
			<path class="st46" d="M3995.2-1659.2c91.4,50.5,84.3,411.3-87,471c-93.1,32.4-207.1-33.7-267-104c-10.4-12.2-99.5-116.8-64.4-198
				c16-37,46.7-43.4,227.8-111.6C3961.5-1660.9,3975.5-1670.1,3995.2-1659.2z"/>
		</g>
	</g>
	<g>
		<linearGradient id="SVGID_40_" gradientUnits="userSpaceOnUse" x1="3669.9324" y1="-1388.8123" x2="3883.5288" y2="-1388.8123">
			<stop  offset="0" style="stop-color:#7118B7;stop-opacity:0.9"/>
			<stop  offset="1" style="stop-color:#7118B7;stop-opacity:0.6"/>
		</linearGradient>
		<path class="st47" d="M3778.5-1255.3c-15.5,0-29.9-1.9-43.2-5.8c-8.6-2.5-17.8-4.8-24.7-6.7c-7.2-2-18.2-2.4-24.1,0.3
			c-0.2,0.1-0.4,0.2-0.6,0.2l-7.8,2.6c-0.4,0.2-0.5,0.2-0.7,0.3c0,0-0.6,0.2-0.6-0.1c-0.8-5.6-9-66.8-6.2-87.3
			c0-0.1,0.2-0.3,0.4-0.5c1.2-1,2.8-1.5,4.3-1.4c7.3,0.8,13.7,5.3,16.8,12c2.4,5,5,10.1,7.9,15.4c5.4,9.7,11.5,18.3,18.5,25.9
			c7.3,8,15.4,14.5,24.3,19.5c9,5,19.5,7.5,31.5,7.5c16.2,0,28.6-4,37.2-11.9c8.6-7.9,12.9-17.9,12.9-29.9c0-9.9-3.7-18.2-11-24.9
			c-7.3-6.7-18.6-12.5-34-17.4c-10-3.2-19.2-6.2-27.6-9c-8.4-2.7-16.3-5.6-23.6-8.4c-17-6.8-29.6-16.5-37.9-29.1
			c-8.3-12.6-12.4-26.7-12.4-42.3c0-9.9,2.1-19.4,6.4-28.5c4.3-9.1,10.5-17.3,18.7-24.6c7.8-6.8,17.9-12.3,30.1-16.6
			c12.2-4.3,25.6-6.4,39.9-6.4c14,0,27.2,2,39.4,5.9c7.3,2.3,13.6,4.7,19,7c6.2,2.7,31,18.6,31.1,27.2l2,38.1
			c0.1,8.4-18.5-3.7-23.3-13.4c-4.8-9.7-9.9-17.8-15.2-24.2c-5.8-6.9-12.5-12.4-20.2-16.5c-7.6-4.1-16.5-6.2-26.8-6.2
			c-12.8,0-23.3,3.6-31.5,10.9c-8.1,7.3-12.2,16.3-12.2,27c0,10.1,3.5,18.4,10.6,24.8c7.1,6.4,18.1,12.1,33.1,17
			c8.8,3,17.8,6,26.9,8.9c9.2,3,17.3,5.8,24.4,8.6c17.2,6.7,30.3,15.9,39.3,27.6c9,11.7,13.5,26.3,13.5,43.7c0,11-2.6,21.6-7.7,31.8
			c-5.1,10.2-12,18.8-20.7,25.5c-9.5,7.5-20.5,13.3-33,17.3C3809.7-1257.3,3795.1-1255.3,3778.5-1255.3z"/>
	</g>
</g>
</svg>
